<?xml version="1.0" standalone="no"?>
<!DOCTYPE svg PUBLIC "-//W3C//DTD SVG 20010904//EN"
 "http://www.w3.org/TR/2001/REC-SVG-20010904/DTD/svg10.dtd">
<svg version="1.0" xmlns="http://www.w3.org/2000/svg"
 width="313.000000pt" height="313.000000pt" viewBox="0 0 313.000000 313.000000"
 preserveAspectRatio="xMidYMid meet">
<metadata>
Created by potrace 1.11, written by Peter Selinger 2001-2013
</metadata>
<g transform="translate(0.000000,313.000000) scale(0.100000,-0.100000)"
fill="#000000" stroke="none">
<path d="M891 2804 c-57 -17 -105 -56 -138 -112 l-28 -47 -3 -1063 c-1 -716 1
-1076 8 -1102 15 -57 68 -120 125 -149 l49 -26 626 -2 c697 -3 697 -2 769 63
22 19 49 56 61 82 l22 47 0 1065 c0 1178 4 1098 -64 1176 -18 21 -53 47 -78
58 -44 20 -60 21 -676 22 -471 0 -642 -3 -673 -12z m1280 -205 c5 -7 9 -116 9
-240 0 -191 -2 -229 -15 -239 -12 -10 -146 -13 -617 -12 -540 0 -603 2 -613
16 -14 19 -17 441 -4 468 5 9 19 18 31 20 13 2 288 3 611 2 502 0 590 -2 598
-15z m-891 -609 c12 -19 10 -249 -2 -272 -8 -16 -26 -18 -173 -17 -113 1 -167
4 -172 12 -14 22 -12 267 2 281 20 20 332 16 345 -4z m446 8 c4 -4 7 -69 7
-144 0 -101 -3 -138 -13 -144 -23 -14 -333 -12 -342 3 -4 6 -8 72 -8 145 0
125 1 133 21 140 26 10 325 9 335 0z m442 -1 c18 -12 17 -270 -1 -285 -19 -16
-334 -16 -343 0 -9 14 -13 264 -5 276 3 5 12 11 19 13 25 8 317 4 330 -4z
m-889 -390 c12 -15 11 -270 -1 -283 -10 -9 -336 -9 -346 0 -11 12 -11 269 0
284 15 18 331 17 347 -1z m447 1 c12 -19 10 -259 -2 -276 -9 -12 -40 -15 -163
-16 -84 -1 -161 2 -172 6 -18 7 -19 18 -19 147 0 102 3 141 13 144 6 3 85 6
174 6 115 1 164 -2 169 -11z m442 0 c8 -8 12 -55 12 -144 0 -129 -1 -133 -22
-140 -28 -9 -326 -9 -335 0 -10 9 -11 247 -2 274 8 22 12 22 172 22 113 0 167
-4 175 -12z m-888 -387 c11 -19 10 -251 -1 -273 -8 -14 -30 -17 -174 -17 -146
0 -166 1 -174 17 -10 19 -10 262 1 278 4 6 67 10 173 9 131 0 168 -3 175 -14z
m443 -2 c18 -24 14 -268 -4 -279 -19 -12 -322 -10 -336 2 -9 7 -13 49 -13 145
0 124 1 134 20 141 10 4 87 7 170 7 128 0 153 -3 163 -16z m445 8 c9 -6 12
-85 12 -337 0 -304 -1 -330 -17 -338 -10 -4 -87 -8 -172 -7 -127 0 -155 3
-165 17 -8 11 -11 105 -10 329 1 173 2 319 3 326 0 6 9 13 19 15 34 7 317 2
330 -5z m-890 -389 c12 -16 14 -259 2 -279 -7 -10 -45 -13 -174 -13 -91 0
-169 4 -173 8 -12 12 -13 269 -1 284 8 9 55 12 173 12 118 0 165 -3 173 -12z
m448 1 c11 -18 10 -250 -1 -273 -10 -19 -20 -20 -160 -21 -83 -1 -160 2 -172
7 -22 7 -23 11 -23 147 0 102 3 141 13 144 27 11 336 7 343 -4z"/>
</g>
</svg>
