<?xml version="1.0" standalone="no"?>
<!DOCTYPE svg PUBLIC "-//W3C//DTD SVG 20010904//EN"
 "http://www.w3.org/TR/2001/REC-SVG-20010904/DTD/svg10.dtd">
<svg version="1.0" xmlns="http://www.w3.org/2000/svg"
 width="1280.000000pt" height="1280.000000pt" viewBox="0 0 1280.000000 1280.000000"
 preserveAspectRatio="xMidYMid meet">
<metadata>
Created by potrace 1.11, written by Peter Selinger 2001-2013
</metadata>
<g transform="translate(0.000000,1280.000000) scale(0.100000,-0.100000)"
fill="#000000" stroke="none">
<path d="M7126 12629 c-6 -32 -18 -98 -21 -126 -2 -11 -6 -29 -9 -40 -3 -10
-8 -31 -10 -48 -9 -51 -76 -366 -90 -425 -13 -50 -23 -100 -32 -155 -2 -11 -5
-31 -8 -45 -3 -14 -17 -92 -31 -175 -14 -82 -27 -155 -29 -161 -3 -6 1 -17 7
-23 9 -9 8 -11 -3 -7 -13 4 -100 14 -137 16 -7 0 -12 3 -12 8 1 4 1 25 0 47
-1 36 -3 38 -15 22 -8 -10 -13 -31 -12 -46 l2 -28 -76 4 c-41 3 -76 6 -77 6 0
1 -4 92 -8 202 -11 321 -21 484 -31 494 -4 4 -11 -29 -19 -93 -8 -57 -22 -46
-24 18 -1 22 -3 50 -5 61 -3 11 -5 25 -6 30 -1 6 -6 -3 -11 -20 -11 -39 -18
-134 -24 -330 -5 -168 -9 -212 -18 -221 -3 -3 -8 30 -12 73 -3 43 -8 92 -10
108 -2 17 -7 71 -11 120 -4 50 -8 97 -10 105 -1 8 -3 27 -3 43 -1 15 -5 27 -9
27 -5 0 -9 -12 -9 -27 -1 -16 -3 -64 -7 -107 -3 -43 -6 -121 -7 -173 -1 -52
-4 -92 -6 -89 -5 4 -7 26 -18 206 -3 52 -7 120 -10 150 -2 30 -6 98 -10 150
-7 106 -12 140 -19 148 -6 5 -7 3 -25 -65 -7 -24 -18 -43 -25 -43 -7 0 -19
-21 -27 -47 -10 -35 -19 -47 -31 -45 -22 3 -28 -18 -33 -119 -4 -85 -12 -194
-21 -304 -2 -33 -9 -64 -13 -68 -5 -5 -17 27 -27 72 -11 48 -21 75 -26 68 -6
-12 -16 -147 -17 -251 -1 -22 -4 -36 -8 -32 -5 4 -8 11 -8 14 -1 4 -5 25 -9
47 -4 22 -10 49 -12 60 -18 88 -41 169 -49 172 -12 4 -43 -50 -50 -87 -3 -14
-7 -78 -10 -142 -3 -86 -2 -118 7 -118 28 0 -2 -9 -47 -15 -28 -3 -64 -8 -82
-11 -34 -5 -37 -1 -48 66 -12 73 -36 182 -45 203 -8 21 -9 21 -11 2 -1 -11 -1
-40 -1 -65 l1 -45 -15 45 c-9 25 -20 61 -24 80 -25 101 -32 126 -42 135 -10
10 -5 -186 9 -320 3 -33 6 -71 7 -85 0 -14 5 -28 11 -32 6 -5 4 -8 -5 -8 -12
0 -23 31 -45 118 -16 64 -30 119 -30 122 -7 36 -16 90 -15 92 1 2 -3 15 -8 29
-6 14 -13 43 -16 65 -9 55 -27 68 -21 15 2 -24 7 -75 10 -115 10 -124 15 -168
22 -180 4 -7 3 -8 -4 -1 -8 8 -35 89 -38 115 -2 18 -38 111 -41 107 -2 -2 -5
-22 -6 -45 -2 -70 -15 -72 -43 -7 -14 33 -39 85 -54 115 -15 30 -38 83 -51
118 -31 84 -45 91 -36 16 4 -32 9 -122 12 -199 2 -77 8 -160 13 -185 15 -65
20 -160 10 -166 -5 -3 -9 -22 -9 -43 0 -35 -2 -37 -46 -49 -36 -10 -45 -16
-41 -30 3 -9 37 -125 75 -257 95 -323 124 -418 133 -429 8 -10 1 63 -11 111
-12 47 5 50 19 3 14 -48 36 -66 27 -24 -3 16 -8 47 -11 69 -11 78 -25 161 -45
270 -12 61 -23 126 -26 145 -17 110 -31 155 -47 154 -9 -1 -14 2 -11 8 3 5 11
7 17 5 7 -2 22 -1 34 4 11 4 41 10 65 13 23 3 58 10 76 15 17 5 32 8 32 6 0
-3 12 0 26 5 20 8 25 7 22 -2 -6 -17 26 -74 40 -71 11 3 39 -81 87 -262 31
-113 35 -122 45 -105 13 21 27 3 40 -49 8 -34 17 -51 31 -54 10 -3 19 -14 19
-24 0 -10 4 -23 9 -29 4 -5 14 -31 21 -57 13 -49 30 -52 35 -5 2 13 9 42 16
66 12 42 13 43 25 20 l13 -23 2 25 c1 14 1 30 -1 35 -1 6 4 5 10 -1 6 -6 16
-43 22 -82 6 -39 15 -69 19 -66 4 2 6 12 4 22 -1 9 -6 87 -10 172 -4 85 -8
175 -10 200 -1 25 -6 110 -10 190 -4 86 -12 148 -18 152 -6 4 2 6 19 6 17 -1
31 -6 31 -12 0 -6 3 -31 7 -56 3 -25 8 -65 11 -90 3 -25 9 -65 15 -90 5 -25
11 -58 14 -75 13 -94 35 -115 34 -32 -1 80 1 111 8 104 4 -3 8 -17 9 -29 2
-13 8 -42 13 -65 5 -23 7 -45 3 -49 -3 -4 -1 -4 6 0 8 4 10 60 8 206 l-4 200
57 1 c31 1 76 2 100 4 30 1 42 -2 42 -12 0 -7 5 -13 11 -13 6 0 9 7 5 15 -3 8
-1 15 5 15 18 0 22 -33 35 -320 3 -74 7 -144 9 -155 2 -11 4 -29 4 -39 1 -16
4 -17 13 -8 7 7 15 12 19 12 8 0 18 -66 21 -143 2 -75 14 -61 22 28 18 189 25
232 40 244 7 6 13 28 14 48 1 21 4 47 6 58 2 11 7 39 11 63 6 38 24 59 26 30
0 -7 2 -22 5 -33 4 -19 8 -98 19 -402 2 -71 8 -155 12 -188 4 -33 7 -149 7
-258 -1 -108 2 -195 5 -192 2 3 6 11 7 18 2 18 15 137 19 172 1 17 8 77 15
135 16 134 18 150 20 180 1 14 4 19 7 13 14 -35 26 3 38 117 1 14 6 48 10 75
8 53 8 59 20 175 4 41 9 84 11 95 1 11 3 31 3 44 1 13 4 21 8 18 3 -4 5 -46 4
-95 -4 -121 -3 -158 5 -227 4 -33 8 -87 9 -120 3 -83 4 -89 10 -83 6 6 19 84
30 177 4 30 9 63 11 75 2 12 6 39 8 61 3 22 7 54 10 70 2 17 7 53 11 82 4 29
15 69 26 89 10 21 24 64 30 96 l12 59 36 -6 c20 -2 59 -7 86 -10 28 -3 64 -9
80 -12 17 -3 35 -6 42 -6 12 0 12 -22 -2 -162 -5 -48 -4 -49 10 -25 l14 25 2
-30 c2 -37 2 -26 -5 -115 -6 -65 -40 -338 -51 -410 -2 -14 -6 -56 -10 -95 -3
-38 -8 -86 -9 -106 -5 -55 10 -70 23 -23 7 21 49 174 95 339 102 364 132 464
141 473 4 4 4 -3 1 -15 -12 -38 -31 -180 -28 -208 1 -5 3 -24 5 -42 4 -32 -2
-83 -29 -253 -22 -138 -23 -142 -50 -287 -13 -73 -24 -140 -23 -150 0 -10 18
38 40 107 22 69 47 141 55 160 l14 35 -4 -43 c-10 -119 35 0 141 371 49 173
62 103 23 -128 -5 -33 -13 -80 -16 -105 -3 -25 -7 -47 -9 -50 -1 -3 1 -14 5
-25 5 -16 15 -1 49 70 45 95 115 272 179 448 45 123 48 116 -51 138 l-58 12 6
51 6 51 -16 -34 c-9 -19 -13 -41 -11 -48 3 -8 -2 -13 -15 -13 -16 0 -19 4 -14
18 8 22 19 142 12 142 -6 0 -57 -104 -57 -118 0 -6 -4 -13 -9 -16 -12 -8 -132
15 -126 24 3 4 7 34 10 66 3 33 7 70 9 84 5 33 18 138 21 170 2 14 7 52 11 85
11 83 7 142 -11 191 -15 39 -17 41 -40 30 -14 -6 -29 -24 -35 -41 -8 -26 -42
-184 -56 -265 -3 -14 -11 -45 -19 -70 l-15 -45 6 80 c3 44 7 91 9 105 2 14 6
57 10 95 3 39 8 86 10 105 2 19 7 66 10 104 3 38 7 73 8 79 1 5 -3 11 -8 13
-6 2 -11 -6 -13 -19 -1 -13 -15 -81 -31 -153 -17 -71 -33 -145 -36 -164 -19
-120 -41 -189 -30 -97 3 23 7 122 10 219 5 171 5 177 -15 183 -22 7 -22 9 -25
145 -1 47 -5 110 -9 140 -10 75 -15 127 -17 181 -2 57 -15 85 -23 48z m144
-1249 c0 -5 -2 -10 -4 -10 -3 0 -8 5 -11 10 -3 6 -1 10 4 10 6 0 11 -4 11 -10z
m103 -17 c-7 -2 -19 -2 -25 0 -7 3 -2 5 12 5 14 0 19 -2 13 -5z"/>
<path d="M8266 12501 c-62 -68 -283 -557 -331 -731 -6 -25 -26 -76 -43 -115
-17 -38 -42 -104 -56 -145 -14 -41 -37 -106 -51 -145 -14 -38 -26 -74 -28 -79
-2 -9 212 -84 243 -85 12 -1 26 34 53 137 21 75 40 145 42 155 2 10 7 28 9 40
3 12 -6 0 -19 -28 -14 -27 -24 -43 -22 -35 2 8 25 88 50 176 45 156 100 362
117 434 28 121 69 331 70 365 4 82 -2 91 -34 56z"/>
<path d="M4550 12133 c1 -7 21 -98 35 -156 2 -10 32 -120 66 -245 33 -124 63
-233 65 -241 2 -9 10 -42 19 -75 9 -32 14 -60 11 -63 -4 -4 -53 95 -88 177 -6
14 -14 33 -19 42 -5 10 -9 25 -9 33 0 8 -5 15 -11 15 -7 0 -9 -9 -5 -22 4 -13
28 -106 55 -208 26 -102 51 -192 55 -200 4 -10 -2 -20 -16 -29 -21 -13 -22
-13 -9 2 11 14 11 23 -4 59 -26 68 -85 209 -107 258 -12 25 -29 65 -40 90 -79
185 -191 406 -203 400 -6 -3 -9 -7 -9 -10 15 -62 15 -62 -6 -55 -25 8 -25 1 1
-100 11 -44 22 -87 24 -95 11 -42 35 -156 35 -165 0 -5 -19 24 -41 65 -46 84
-47 85 -54 78 -3 -3 15 -65 40 -139 26 -74 54 -172 65 -219 21 -101 69 -242
84 -252 7 -5 5 -8 -6 -8 -9 0 -45 -13 -80 -28 l-63 -29 -1 23 c-1 13 -11 36
-22 51 -11 16 -54 96 -96 178 -41 83 -83 162 -93 176 -32 47 -84 101 -90 95
-4 -3 6 -45 20 -93 15 -49 29 -106 32 -128 6 -52 13 -83 19 -93 2 -4 1 -14 -3
-21 -6 -10 -13 -5 -27 18 -19 33 -41 43 -30 14 12 -31 -8 -4 -39 52 -81 147
-116 205 -125 205 -5 0 -2 -20 7 -46 20 -59 10 -67 -17 -14 -11 22 -70 115
-131 205 -154 230 -163 232 -63 14 84 -183 157 -360 151 -366 -7 -6 -68 73
-107 140 -35 58 -62 80 -37 30 8 -16 21 -44 30 -63 8 -19 33 -73 55 -120 21
-47 59 -128 82 -180 24 -52 63 -131 85 -176 l41 -81 -40 -22 c-29 -16 -34 -17
-19 -4 l23 18 -43 65 c-23 36 -43 67 -43 70 -2 10 -97 156 -147 225 -68 94
-194 248 -251 310 -26 28 -74 86 -107 130 -32 44 -63 85 -67 90 -4 6 -22 31
-39 56 -29 42 -63 78 -63 66 0 -10 50 -135 75 -185 14 -30 39 -88 56 -129 32
-81 125 -273 239 -493 38 -74 70 -143 70 -153 0 -22 33 -87 72 -145 17 -24 28
-45 26 -46 -1 -1 -55 -37 -119 -79 -64 -43 -122 -83 -128 -91 -12 -15 -18 -6
124 -186 49 -63 104 -133 120 -155 16 -22 35 -45 41 -52 7 -7 52 -65 100 -130
49 -65 92 -120 95 -123 8 -7 211 -287 234 -322 20 -32 31 -34 56 -12 18 16 15
23 -55 158 -40 77 -136 242 -213 366 -77 124 -146 239 -155 255 -8 17 -28 53
-43 80 l-27 50 36 -37 c42 -44 50 -47 41 -15 -7 22 9 3 53 -60 58 -85 82 -115
82 -103 0 7 -14 37 -32 68 -17 30 -26 52 -20 48 7 -4 12 -4 12 -1 0 14 -59
128 -123 234 -50 85 -64 117 -55 122 7 4 42 25 78 47 l65 40 13 -29 c13 -25
71 -99 175 -219 35 -42 49 -41 26 2 -6 11 -9 22 -6 24 2 2 21 -24 42 -58 21
-35 66 -106 100 -158 33 -52 101 -157 149 -232 49 -76 93 -138 98 -138 5 0 2
12 -5 28 -18 35 -30 82 -20 82 4 0 18 -10 31 -22 l24 -23 -7 25 c-7 22 -77
198 -110 275 -7 17 -62 152 -121 300 -59 149 -112 273 -116 276 -5 3 3 14 19
24 15 10 25 14 21 10 -4 -4 8 -35 26 -69 18 -33 63 -119 100 -189 78 -149 90
-172 145 -262 23 -37 41 -70 41 -74 1 -3 12 -19 25 -36 23 -28 25 -28 25 -8 0
12 -5 34 -11 50 l-10 28 32 -30 c33 -32 33 -32 13 35 -6 22 -5 23 10 11 9 -7
16 -11 16 -8 0 3 -34 93 -75 201 -41 108 -75 199 -75 203 0 13 52 -68 110
-172 95 -170 129 -213 109 -141 -11 41 -104 306 -147 421 -17 44 -33 89 -37
100 -7 20 -6 20 9 1 19 -23 21 -9 7 40 -9 31 -9 31 56 57 l65 26 15 -27 c8
-15 30 -54 49 -87 32 -54 35 -57 29 -25 -4 19 -8 53 -11 75 l-4 40 25 -52 c27
-57 41 -69 30 -26 -12 48 2 22 63 -122 75 -176 138 -308 205 -427 29 -51 61
-113 72 -138 10 -25 22 -49 26 -54 9 -10 9 -8 -27 134 -14 58 -27 112 -29 120
-2 8 -13 56 -26 105 -34 138 -34 291 0 228 16 -32 169 -416 176 -446 4 -15 12
-27 17 -27 6 0 7 11 3 28 -10 40 -39 190 -50 257 -2 11 -6 34 -9 50 -11 51
-47 258 -53 300 -5 35 -4 38 11 26 14 -12 15 -8 11 45 -3 33 -12 87 -19 122
-13 62 -12 62 10 62 13 0 25 4 28 9 7 10 -115 383 -184 561 -52 137 -109 260
-120 260 -7 0 -4 -20 14 -115 2 -11 12 -60 21 -110 9 -49 19 -99 21 -110 7
-34 36 -189 41 -215 24 -139 56 -289 65 -305 6 -11 7 -17 3 -13 -4 3 -26 -2
-49 -11 -38 -17 -42 -17 -43 -2 -1 17 -143 439 -186 551 -46 122 -88 201 -112
210 -14 5 -34 31 -50 65 -25 51 -45 78 -45 58z m350 -907 c0 -2 -9 -6 -20 -9
-11 -3 -18 -1 -14 4 5 9 34 13 34 5z m-765 -306 c-3 -5 -12 -10 -18 -10 -7 0
-6 4 3 10 19 12 23 12 15 0z m-40 -20 c-3 -5 -12 -10 -18 -10 -7 0 -6 4 3 10
19 12 23 12 15 0z"/>
<path d="M9263 12041 c-16 -22 -67 -99 -114 -173 -48 -73 -138 -212 -201 -308
-63 -96 -120 -184 -126 -195 -14 -25 -15 -19 -3 23 12 40 -1 41 -29 2 -15 -21
-27 -29 -40 -25 -14 4 -35 -25 -109 -154 -50 -87 -98 -172 -107 -189 l-15 -31
-52 23 c-33 15 -51 28 -48 37 2 8 23 70 46 139 23 69 52 170 64 225 13 55 29
124 36 153 7 28 10 52 6 52 -10 0 -30 -35 -103 -183 -113 -228 -159 -338 -148
-352 12 -14 -104 25 -117 39 -4 5 -3 6 3 3 7 -4 16 15 23 56 7 34 19 89 27
122 8 33 17 69 19 80 2 11 15 63 29 115 36 136 26 136 -49 0 -58 -104 -74
-124 -90 -110 -17 14 -49 -37 -85 -134 -24 -66 -28 -71 -53 -68 -20 2 -27 -2
-28 -15 -4 -46 -2 -38 -90 -373 -11 -41 -22 -82 -24 -90 -2 -8 -22 -84 -45
-169 -23 -84 -39 -158 -37 -165 2 -6 26 35 53 91 27 57 52 103 55 103 4 0 4
-18 2 -40 -3 -25 -1 -40 6 -40 6 0 11 -7 11 -15 0 -38 34 -6 76 72 15 29 29
51 31 49 2 -2 -10 -39 -26 -82 -44 -120 -83 -245 -79 -249 2 -3 31 47 63 110
57 110 83 146 65 88 -5 -16 -23 -71 -39 -123 -17 -52 -31 -99 -31 -105 0 -19
162 316 289 599 17 38 33 67 35 65 3 -2 -33 -116 -80 -253 -84 -249 -92 -276
-75 -276 26 0 387 580 377 605 -2 7 59 -19 136 -58 78 -39 136 -73 130 -75
-30 -10 -302 -590 -294 -628 10 -56 52 -22 166 139 114 160 196 264 196 247 0
-6 -24 -55 -54 -109 -131 -235 -240 -450 -233 -457 3 -3 29 26 58 65 30 39 58
70 63 71 5 0 4 -6 -2 -12 -18 -23 -182 -331 -182 -344 0 -10 37 42 205 291
228 338 319 467 323 456 4 -13 -80 -193 -132 -281 -20 -34 -41 -81 -46 -105
-5 -24 -19 -67 -30 -96 -12 -28 -19 -53 -17 -56 2 -2 33 29 68 69 35 40 98
109 139 153 42 44 98 109 125 145 27 36 53 66 57 68 4 2 17 21 29 42 12 22 29
42 37 45 14 5 112 -60 112 -75 0 -5 -4 -11 -9 -14 -15 -9 -103 -147 -98 -153
3 -2 18 13 33 34 16 21 31 40 34 43 23 20 59 78 52 85 -6 8 68 -46 91 -65 4
-4 0 -24 -10 -45 -13 -28 -15 -39 -6 -42 9 -3 7 -18 -8 -56 -11 -29 -22 -63
-24 -77 -2 -14 -5 -32 -7 -40 -3 -16 4 -16 36 -4 32 12 -50 -126 -168 -284
-59 -79 -106 -146 -103 -148 2 -2 29 22 59 53 31 32 68 69 84 83 l28 25 -24
-35 c-13 -19 -40 -55 -59 -80 -20 -24 -41 -51 -48 -60 -7 -8 -47 -60 -90 -115
-43 -55 -83 -106 -90 -113 -13 -13 -16 -22 -9 -22 2 0 33 30 67 67 255 268
516 533 525 533 4 0 0 -8 -8 -17 -21 -24 -188 -273 -188 -280 0 -2 -9 -18 -21
-34 -11 -16 -18 -33 -15 -37 3 -5 -6 -26 -20 -46 -14 -21 -24 -39 -22 -41 2
-3 42 29 88 70 47 41 93 74 103 75 9 0 72 50 140 112 67 61 142 129 166 151
33 30 40 41 30 48 -8 5 -9 9 -3 9 5 0 50 -42 99 -92 50 -51 86 -90 81 -86 -5
4 -18 -2 -28 -15 -61 -70 -245 -276 -257 -287 -36 -33 -141 -151 -141 -159 0
-26 98 30 284 163 111 79 212 152 225 163 l24 20 31 -34 31 -33 71 68 c39 37
130 123 203 192 251 235 381 371 381 395 0 5 11 20 24 34 26 29 96 152 96 171
0 14 -122 -71 -198 -139 -31 -28 -70 -62 -87 -76 -50 -44 -138 -101 -173 -113
-18 -6 -89 -55 -159 -109 -69 -54 -136 -106 -149 -116 -13 -10 -24 -15 -24
-11 0 6 76 99 115 140 5 6 28 32 50 59 22 26 45 53 50 59 37 41 96 116 90 116
-9 0 -126 -90 -143 -110 -11 -13 -11 -12 -2 7 5 12 15 25 21 28 5 4 30 35 55
68 44 60 44 88 1 50 -38 -34 -88 -65 -94 -59 -3 3 9 22 26 43 44 53 47 56 60
82 14 25 15 24 -17 40 -24 13 -34 9 -72 -29 -21 -21 -167 -143 -335 -280 -77
-63 -143 -119 -147 -124 -7 -10 -10 -8 -95 69 -41 38 -43 43 -33 69 9 25 8 27
-7 21 -33 -14 -49 -10 -89 24 l-39 34 32 34 c18 18 51 73 73 120 45 94 76 142
218 337 109 150 123 177 62 119 -92 -85 -116 -101 -104 -68 4 8 1 15 -4 15
-15 0 -82 -39 -109 -63 -35 -31 -40 -12 -11 46 14 29 29 63 33 77 7 23 7 24
-11 10 -33 -25 -108 -106 -158 -171 -71 -92 -74 -93 -28 -8 23 43 40 88 40
105 -1 17 5 41 13 54 7 14 14 37 15 51 0 15 4 34 7 43 4 11 1 16 -11 16 -19 0
-126 -107 -272 -270 -47 -52 -98 -110 -115 -128 -16 -18 -29 -38 -27 -43 1 -6
-26 10 -60 35 -35 25 -62 49 -61 53 1 4 12 32 24 60 13 29 20 56 16 60 -10 10
-67 -23 -97 -57 l-25 -28 -97 57 c-53 31 -100 60 -105 65 -4 5 13 -3 40 -19
57 -33 69 -27 92 48 33 110 39 124 74 187 66 117 134 290 115 290 -9 0 -117
-140 -145 -187 -19 -31 -32 -29 -26 4 5 29 -1 55 -12 49 -4 -3 -13 -1 -21 4
-11 7 -9 19 10 72 12 34 32 86 45 113 30 66 65 157 111 285 20 58 40 110 44
115 4 6 13 28 20 50 7 22 16 45 20 50 9 13 59 154 65 183 6 31 -1 28 -32 -17z
m-1173 -871 c8 -5 11 -10 5 -10 -5 0 -17 5 -25 10 -8 5 -10 10 -5 10 6 0 17
-5 25 -10z m285 -118 c-3 -3 -11 0 -18 7 -9 10 -8 11 6 5 10 -3 15 -9 12 -12z
m470 -222 c3 -6 -1 -7 -9 -4 -18 7 -21 14 -7 14 6 0 13 -4 16 -10z m1301
-1032 l29 -33 -32 29 c-31 28 -38 36 -30 36 2 0 16 -15 33 -32z"/>
<path d="M2590 11543 c0 -11 273 -423 530 -798 61 -88 110 -162 110 -164 0 -3
-13 11 -30 30 -16 19 -40 45 -53 59 -12 14 -57 69 -100 122 -75 95 -104 120
-139 123 -29 3 -21 -26 32 -108 28 -43 50 -80 50 -83 0 -29 136 -252 188 -306
14 -16 21 -28 16 -28 -6 0 -23 14 -40 31 -16 17 -49 45 -74 62 -57 39 -102 81
-200 182 -71 74 -96 101 -206 224 -46 52 -100 102 -121 114 -32 19 -29 -3 13
-107 6 -16 4 -18 -9 -13 -24 9 -21 -7 10 -56 30 -49 186 -257 252 -338 25 -30
62 -75 81 -99 19 -24 51 -62 70 -85 19 -23 48 -57 63 -76 l28 -34 -53 -48
c-29 -27 -85 -80 -125 -118 -39 -39 -73 -66 -75 -62 -1 4 -39 39 -83 78 -104
90 -124 108 -161 142 -17 15 -64 57 -105 93 -40 36 -94 83 -119 106 -25 22
-65 58 -89 80 -24 21 -54 48 -66 59 -107 96 -182 162 -275 245 -79 70 -89 79
-140 125 -43 40 -25 5 27 -51 206 -223 286 -315 279 -321 -5 -6 -132 82 -156
107 -28 31 -165 130 -178 130 -19 0 10 -38 120 -154 95 -101 123 -131 493
-507 116 -118 228 -235 250 -261 l39 -48 26 23 c14 12 8 3 -14 -20 l-38 -41
23 -13 c22 -11 96 -66 109 -79 3 -3 28 -20 57 -39 40 -25 58 -31 75 -25 13 4
26 7 31 6 25 -7 -29 73 -104 153 -71 77 -89 98 -89 105 0 4 20 28 43 54 l44
46 29 -22 c29 -23 66 -53 88 -73 6 -5 31 -28 56 -49 70 -61 209 -187 250 -226
20 -19 63 -60 96 -90 33 -30 122 -114 199 -186 208 -195 206 -194 216 -194 21
0 6 31 -40 81 -27 30 -48 56 -45 58 2 2 22 -11 45 -29 36 -29 40 -30 29 -9
-24 44 -175 236 -276 349 -115 129 -184 210 -184 216 0 4 48 -40 108 -99 59
-58 123 -119 142 -137 19 -17 54 -49 77 -71 22 -21 44 -39 48 -39 7 0 -43 66
-81 107 -42 45 -145 173 -140 173 3 0 16 -12 30 -27 89 -96 -66 117 -187 257
-12 14 -62 76 -111 139 l-89 114 54 48 c30 27 58 49 63 49 6 0 1 -6 -9 -14
-18 -13 -14 -19 65 -99 84 -86 111 -104 71 -49 -12 17 -21 34 -21 40 0 5 -7
15 -15 22 -8 7 -15 19 -15 27 0 10 10 6 35 -13 39 -29 45 -22 14 16 -62 77
-81 112 -69 123 8 7 11 8 7 1 -3 -6 38 -53 91 -106 92 -90 160 -163 234 -253
56 -67 271 -285 276 -280 3 3 -9 26 -26 50 -18 25 -32 48 -32 51 0 3 -21 32
-46 65 -44 57 -367 570 -362 574 2 1 24 18 49 38 l46 37 -51 53 c-28 28 -78
83 -111 121 -33 38 -69 78 -80 90 -11 11 -89 104 -174 206 -85 102 -162 193
-172 202 -10 10 -30 34 -45 55 -16 21 -44 57 -64 79 -19 23 -53 63 -75 90 -69
83 -115 129 -115 117z m740 -1127 c0 -2 -8 -10 -17 -17 -16 -13 -17 -12 -4 4
13 16 21 21 21 13z m-40 -30 c0 -2 -8 -10 -17 -17 -16 -13 -17 -12 -4 4 13 16
21 21 21 13z m-75 -66 c-3 -5 -12 -10 -18 -10 -7 0 -6 4 3 10 19 12 23 12 15
0z m45 -520 c0 -5 -2 -10 -4 -10 -3 0 -8 5 -11 10 -3 6 -1 10 4 10 6 0 11 -4
11 -10z"/>
<path d="M1960 10223 c0 -5 30 -39 67 -77 37 -38 68 -76 69 -85 1 -9 5 -24 9
-35 7 -16 6 -17 -13 -7 -30 16 -55 14 -45 -3 14 -26 78 -90 164 -165 46 -41
126 -117 177 -168 l93 -94 -28 -33 c-23 -27 -31 -31 -43 -21 -39 30 -200 124
-200 116 0 -12 59 -83 116 -140 39 -38 46 -42 61 -30 9 8 -7 -18 -36 -57 l-53
-71 -79 51 c-44 28 -100 65 -125 81 -25 17 -60 39 -77 50 l-32 20 18 -28 c9
-15 15 -27 12 -27 -7 0 -349 205 -402 241 -23 16 -45 29 -48 29 -4 0 -18 9
-32 20 -15 11 -28 18 -31 15 -3 -2 7 -14 22 -26 14 -11 32 -26 39 -32 23 -22
221 -182 312 -251 50 -38 92 -71 94 -73 2 -1 2 -5 -1 -8 -3 -3 -67 24 -142 61
-75 37 -139 64 -142 62 -3 -3 19 -25 48 -49 29 -24 71 -62 93 -84 55 -54 103
-96 155 -134 24 -17 41 -31 38 -31 -8 0 -197 88 -260 121 -74 38 -76 21 -6
-43 29 -26 47 -48 41 -48 -6 0 -65 27 -130 60 -136 69 -183 80 -133 30 30 -30
26 -60 -7 -60 l-28 -1 40 -35 c22 -20 139 -102 260 -182 121 -80 222 -147 223
-148 2 -1 -16 -38 -39 -81 l-43 -79 -99 43 c-55 24 -102 42 -104 40 -5 -6 28
-33 101 -81 64 -41 71 -44 83 -28 7 9 -1 -12 -18 -48 -17 -36 -33 -66 -34 -68
-2 -2 -42 10 -90 27 -65 22 -85 26 -81 16 5 -13 1 -13 -27 -1 -39 17 -293 134
-394 182 -40 19 -75 34 -79 34 -4 0 -34 12 -68 26 -194 83 -235 83 -93 -1 234
-137 267 -158 267 -167 0 -5 -4 -6 -10 -3 -18 11 -100 17 -100 8 0 -13 70 -62
155 -108 38 -21 81 -49 95 -64 35 -35 308 -174 323 -164 7 4 7 0 -2 -10 -11
-15 -10 -18 10 -26 13 -5 164 -63 334 -128 171 -66 319 -123 330 -128 11 -4
25 -9 30 -11 6 -2 89 -30 185 -64 126 -43 168 -54 150 -40 -14 11 -173 95
-355 186 -183 92 -379 198 -440 239 -60 40 -124 80 -142 89 -41 20 -45 29 -29
51 12 17 22 14 166 -46 85 -35 157 -65 162 -67 4 -2 8 0 8 5 0 5 -20 20 -45
33 -25 14 -41 26 -36 28 9 3 58 -18 436 -188 234 -105 295 -130 295 -122 0 10
-69 54 -319 202 -119 71 -211 131 -211 140 0 8 -38 37 -83 63 -45 26 -98 61
-117 77 l-35 29 40 -10 c74 -19 149 -52 405 -180 140 -70 275 -133 300 -140
25 -7 73 -28 108 -47 35 -19 65 -32 67 -30 2 2 -132 91 -298 198 -166 107
-351 226 -412 265 -60 40 -138 89 -172 111 -65 41 -73 53 -48 74 8 7 15 18 15
24 0 6 7 19 15 30 13 17 18 16 104 -28 50 -26 91 -45 91 -42 0 4 -115 96 -138
110 -7 4 -20 2 -29 -6 -15 -12 -15 -11 -2 10 17 27 20 27 70 1 58 -29 67 -19
19 20 -35 28 -43 31 -57 20 -8 -8 -3 4 11 26 33 48 39 54 34 36 -3 -13 7 -20
97 -71 49 -27 198 -115 243 -142 56 -34 35 -5 -45 62 -43 36 -100 85 -128 110
-28 25 -67 59 -88 75 -27 21 -36 35 -32 47 6 15 8 15 25 0 11 -8 27 -17 36
-18 12 -2 9 5 -11 26 -26 27 -26 29 -10 54 10 14 22 23 29 19 6 -3 29 -18 51
-33 22 -15 47 -30 55 -34 8 -4 24 -12 35 -19 11 -7 52 -30 90 -51 39 -22 206
-131 373 -243 166 -112 302 -201 302 -198 0 2 -44 39 -97 82 -54 42 -116 93
-139 112 -22 20 -71 63 -109 96 -38 33 -88 77 -110 99 l-40 38 48 -27 c27 -15
50 -25 52 -23 2 2 -61 70 -140 152 -80 81 -145 150 -145 152 0 8 44 -18 160
-96 222 -149 270 -181 270 -175 0 8 -176 181 -269 265 -46 41 -105 94 -130
117 -25 23 -49 43 -53 43 -14 0 -9 16 13 41 49 57 95 112 102 124 15 26 -198
184 -324 240 -19 8 -71 45 -115 82 -83 69 -197 153 -208 153 -3 0 -6 -3 -6 -7z"/>
<path d="M11405 9964 c-40 -14 -80 -22 -95 -19 -20 4 -56 -14 -165 -81 -77
-47 -174 -107 -215 -132 -41 -25 -167 -104 -279 -174 -112 -71 -205 -127 -206
-126 -2 2 -25 32 -53 67 l-49 63 24 26 c38 42 31 52 -19 26 l-31 -16 -43 48
c-26 29 -47 45 -51 39 -5 -6 -62 -57 -128 -115 -170 -149 -284 -261 -279 -274
5 -14 -70 -93 -191 -201 -49 -44 -95 -84 -101 -90 -6 -5 -45 -41 -87 -79 -43
-37 -77 -72 -77 -77 0 -7 219 149 315 224 84 65 325 230 330 225 2 -2 -24 -32
-58 -67 -43 -46 -54 -63 -39 -59 12 4 22 4 22 1 0 -2 -32 -34 -72 -71 -100
-93 -148 -141 -148 -148 0 -3 3 -3 8 -1 30 18 630 388 680 420 l63 40 15 -22
c9 -12 26 -34 38 -48 l23 -26 -57 -46 c-151 -122 -192 -167 -107 -118 23 13
75 41 115 62 39 21 72 43 72 49 0 6 7 0 16 -13 15 -21 15 -23 -7 -39 -22 -15
-112 -87 -309 -247 -93 -75 -82 -67 -273 -225 -87 -73 -156 -134 -154 -136 6
-6 84 29 147 66 68 41 169 93 478 250 166 84 241 128 238 137 -8 21 0 15 18
-12 9 -14 13 -24 9 -23 -8 3 -35 -15 -101 -66 l-37 -29 30 6 29 5 -34 -29
c-19 -15 -96 -70 -170 -120 -197 -134 -332 -230 -328 -235 2 -1 64 26 138 63
182 88 242 114 249 107 3 -3 -1 -9 -9 -14 -8 -5 -34 -22 -58 -40 -33 -24 -41
-34 -33 -44 13 -15 -20 -53 -75 -87 -42 -26 -44 -43 -4 -37 16 2 31 0 33 -6 5
-16 101 17 235 80 63 30 115 54 117 54 1 0 24 10 51 22 27 12 71 30 98 39 l48
17 56 -119 c31 -66 60 -119 64 -119 3 0 13 6 20 13 20 20 104 70 203 123 50
26 123 67 163 91 41 24 76 43 78 43 3 0 10 4 17 10 7 5 48 35 92 66 95 67 245
192 245 205 0 5 -3 9 -7 9 -9 -1 -90 -30 -138 -49 -16 -7 -55 -21 -85 -31 -30
-11 -95 -33 -144 -50 -57 -20 -91 -27 -96 -21 -4 7 -30 2 -74 -14 -79 -29 -89
-30 -62 -10 35 26 0 16 -91 -26 -48 -22 -101 -46 -118 -54 -16 -7 -52 -23 -79
-35 -26 -12 -52 -18 -56 -13 -21 23 -86 160 -76 160 15 0 141 78 195 122 25
20 49 39 55 44 33 22 -79 31 -165 12 -31 -7 -38 5 -14 25 8 7 15 23 15 36 0
14 9 28 23 35 12 7 24 15 27 18 3 4 100 69 215 146 206 137 253 171 244 179
-2 2 -22 -4 -44 -14 -146 -66 -170 -73 -160 -40 8 25 -4 25 -74 4 -59 -17 -68
-15 -51 15 7 14 7 21 0 21 -11 0 -165 -79 -270 -140 -36 -20 -92 -52 -125 -70
l-60 -32 30 28 c17 16 64 59 105 94 86 75 115 100 186 162 72 63 181 148 231
181 24 15 55 38 70 52 16 13 64 54 108 91 94 78 134 116 135 127 0 10 -8 9
-85 -19z m-764 -801 c13 -16 12 -17 -3 -4 -10 7 -18 15 -18 17 0 8 8 3 21 -13z
m23 -39 c3 -8 2 -12 -4 -9 -6 3 -10 10 -10 16 0 14 7 11 14 -7z m80 -130 c3
-8 2 -12 -4 -9 -6 3 -10 10 -10 16 0 14 7 11 14 -7z m26 -44 c6 -11 8 -20 6
-20 -3 0 -10 9 -16 20 -6 11 -8 20 -6 20 3 0 10 -9 16 -20z"/>
<path d="M190 8898 c0 -14 40 -40 140 -89 36 -17 101 -53 146 -79 69 -41 606
-310 618 -310 2 0 50 -22 107 -49 161 -75 260 -121 264 -121 2 0 43 -18 91
-41 58 -27 93 -38 102 -33 7 5 25 41 38 79 13 39 31 84 39 100 8 17 10 34 6
38 -9 9 -231 82 -371 122 -52 14 -187 60 -300 102 -365 134 -425 155 -455 163
-16 4 -48 14 -70 23 -59 22 -338 107 -352 107 -2 0 -3 -6 -3 -12z"/>
<path d="M11570 8631 c-69 -21 -154 -50 -190 -65 -60 -25 -143 -54 -262 -91
-26 -8 -56 -15 -67 -15 -13 0 -21 -7 -22 -17 0 -14 -2 -15 -6 -3 -17 46 -36
38 -433 -183 -213 -118 -239 -141 -151 -131 30 3 52 1 56 -5 3 -6 1 -11 -4
-11 -6 0 -11 -5 -11 -11 0 -11 66 -6 113 7 27 8 20 -10 -10 -24 -16 -7 -39
-21 -53 -32 l-25 -21 45 6 c25 4 83 19 130 35 47 15 86 27 87 26 2 -1 -38 -22
-87 -46 -50 -23 -90 -47 -90 -52 0 -5 3 -7 8 -5 4 3 48 17 97 32 50 15 118 36
153 47 34 11 68 21 75 22 31 6 193 59 202 66 7 6 16 1 24 -12 7 -11 8 -17 2
-13 -12 7 -71 -24 -71 -38 0 -9 -108 -62 -414 -202 -110 -50 -202 -97 -204
-104 -3 -10 0 -10 15 -3 10 6 42 15 71 20 44 8 50 7 41 -5 -27 -31 -11 -29
196 32 50 14 97 27 106 30 9 2 80 22 158 44 79 23 148 41 155 41 13 0 51 -118
41 -128 -3 -3 -22 -14 -43 -24 l-37 -18 40 6 c22 3 43 11 46 16 4 6 13 -11 21
-38 8 -27 10 -50 6 -52 -4 -2 -8 -10 -8 -17 0 -8 -10 -17 -22 -20 -13 -4 -36
-13 -53 -20 -16 -8 -75 -32 -130 -56 -129 -53 -228 -103 -243 -122 -7 -8 -26
-20 -42 -27 -38 -16 -31 -29 12 -24 18 3 53 6 78 9 25 2 56 6 70 10 45 10 141
14 136 6 -7 -10 -88 -39 -223 -81 -56 -17 -105 -36 -109 -42 -5 -7 -2 -8 7 -3
9 5 11 5 4 -2 -9 -9 -167 -55 -235 -68 -65 -12 -120 -27 -120 -32 0 -5 36 -1
95 11 18 3 115 18 140 21 14 1 107 17 130 22 73 14 432 22 485 10 14 -3 29 -6
34 -6 24 -2 -14 -20 -79 -36 -104 -27 -108 -41 -10 -35 81 5 -48 -37 -214 -70
-25 -5 -56 -12 -68 -15 -34 -8 -52 -11 -126 -25 -43 -8 -64 -16 -56 -21 7 -4
16 -6 20 -3 7 4 45 9 144 19 33 3 83 8 110 10 76 8 140 14 245 21 86 6 94 5
82 -9 -21 -25 -6 -36 38 -31 28 3 40 1 40 -8 0 -7 3 -22 6 -33 5 -18 0 -20
-41 -20 -26 1 -49 -3 -51 -7 -3 -5 -9 -6 -14 -3 -4 3 -23 -2 -41 -10 -33 -14
-30 -14 59 -12 50 2 92 3 93 2 0 0 2 -18 5 -41 l5 -40 -58 -14 c-32 -7 -71
-14 -88 -16 -84 -10 -110 -16 -196 -48 -52 -20 -100 -36 -108 -36 -8 0 -11 -3
-7 -7 4 -5 35 -9 69 -9 87 -2 195 -14 225 -25 14 -6 55 -12 91 -15 37 -3 72
-6 79 -6 6 -1 12 -12 12 -25 0 -12 -6 -24 -12 -24 -7 -1 -33 -2 -58 -3 -25 -2
-72 -6 -105 -10 -33 -4 -71 -9 -85 -10 -110 -14 -138 -17 -160 -21 -14 -2 -50
-7 -80 -10 -30 -4 -69 -13 -86 -21 -17 -8 -35 -14 -40 -13 -5 1 -47 -2 -94 -6
-47 -5 -92 -8 -100 -6 -10 2 -12 -1 -5 -7 6 -6 84 -13 175 -17 91 -3 192 -8
225 -10 33 -2 84 -5 113 -6 52 -2 73 -18 27 -20 -14 -1 -29 -3 -35 -4 -5 -1
-21 -3 -35 -4 -14 0 -25 -6 -25 -12 0 -5 5 -7 10 -4 6 3 10 1 10 -4 0 -6 -11
-11 -24 -11 -37 0 -152 -38 -166 -55 -7 -8 -9 -15 -4 -16 5 0 18 -2 29 -5 35
-7 206 -14 370 -15 l161 -1 0 -73 c0 -71 -1 -73 -24 -71 -22 3 -91 -7 -150
-20 -15 -3 -22 -10 -19 -18 4 -10 -10 -16 -51 -22 -65 -9 -60 -8 -89 -18 -13
-4 -23 -11 -23 -16 0 -8 72 -40 90 -40 5 0 34 -9 65 -21 57 -21 72 -39 33 -39
-42 0 -98 -21 -98 -35 0 -8 -8 -15 -17 -16 -44 -1 -109 -12 -117 -19 -8 -8 64
-33 124 -44 14 -2 36 -7 50 -10 31 -7 71 -14 130 -22 25 -3 47 -8 49 -10 2 -2
9 1 16 6 8 7 9 -4 4 -43 -4 -29 -8 -62 -8 -74 -1 -19 -4 -21 -24 -14 -13 5
-104 7 -202 6 -353 -7 -426 -6 -590 9 -141 13 -209 17 -204 12 3 -3 116 -33
250 -66 134 -33 258 -66 274 -74 l30 -15 -40 -1 c-22 -1 -49 -3 -60 -5 -11 -3
-41 -6 -67 -7 -27 -2 -48 -6 -48 -10 0 -5 2 -8 4 -8 2 0 57 -13 122 -30 66
-16 133 -32 149 -35 75 -13 90 -17 101 -26 11 -9 129 -47 210 -69 l42 -10 -9
-38 c-5 -20 -11 -57 -15 -82 -3 -25 -11 -49 -16 -55 -8 -7 -9 -6 -4 3 5 7 1
12 -11 13 -10 0 -25 2 -33 3 -8 2 -40 7 -70 11 -30 4 -62 8 -70 10 -39 8 -139
25 -174 31 -21 3 -48 7 -59 10 -12 2 -37 6 -57 9 -20 3 -45 7 -55 9 -11 2 -56
9 -100 16 -44 6 -90 13 -102 15 -13 2 -23 0 -23 -3 0 -4 83 -35 185 -69 163
-55 235 -90 235 -114 0 -4 -20 -6 -45 -4 -25 3 -45 3 -45 0 0 -10 126 -65 284
-125 56 -21 18 -19 -125 6 -165 30 -262 40 -239 26 8 -6 60 -25 115 -42 55
-18 127 -43 160 -56 33 -12 72 -26 88 -29 15 -4 27 -10 27 -14 0 -4 -33 1 -72
11 -40 10 -82 17 -93 15 -19 -4 -19 -5 3 -12 26 -9 30 -29 5 -21 -21 5 -291
76 -313 81 -8 2 -87 25 -175 50 -250 73 -448 125 -453 120 -6 -6 28 -20 203
-85 166 -62 275 -111 369 -168 37 -23 72 -42 76 -42 15 0 205 -73 215 -83 7
-7 6 -8 -3 -3 -7 4 -43 10 -80 13 -37 2 -130 22 -207 42 -189 51 -195 53 -195
43 0 -15 99 -64 374 -185 149 -64 271 -119 273 -120 1 -2 -17 -53 -41 -113
-24 -60 -42 -112 -40 -116 2 -3 35 -16 72 -29 37 -12 73 -26 80 -32 6 -5 12
-7 12 -4 0 3 21 -2 48 -10 26 -8 72 -21 102 -28 72 -18 268 -85 510 -174 327
-121 506 -181 713 -238 10 -2 17 1 17 9 0 13 -17 24 -120 81 -30 16 -100 56
-155 87 -162 93 -355 188 -715 352 -96 44 -203 93 -238 109 -35 16 -65 29 -67
29 -2 0 -42 18 -89 39 l-85 40 11 33 c6 18 12 34 12 35 2 2 151 -36 284 -71
94 -26 105 -15 21 20 -153 65 -262 105 -275 100 -17 -7 -17 -3 -1 37 8 18 15
35 15 40 8 40 17 57 31 57 24 -1 112 -22 375 -90 168 -43 223 -48 144 -13 -56
25 -383 143 -398 143 -5 0 -10 4 -10 8 0 5 57 -7 128 -25 377 -99 602 -154
645 -158 27 -3 53 -8 59 -11 6 -4 9 -1 6 6 -5 16 -133 69 -353 144 -182 63
-222 80 -262 115 -26 22 -31 43 -8 35 8 -3 19 -3 26 1 14 9 -20 24 -169 75
-62 21 -113 41 -113 44 -1 4 2 27 6 52 l7 46 58 -6 c32 -4 69 -9 82 -11 12 -3
88 -16 168 -30 80 -14 159 -28 175 -31 163 -30 254 -46 275 -49 14 -2 88 -15
165 -28 77 -14 156 -28 175 -31 19 -4 58 -11 86 -17 115 -23 279 -34 288 -20
14 22 -20 51 -89 75 -64 24 -363 111 -410 120 -11 3 -90 23 -175 45 -279 74
-713 182 -732 184 -16 1 -19 6 -13 32 4 16 7 35 8 42 0 8 6 9 16 3 9 -4 63
-11 121 -14 89 -5 101 -4 85 8 -23 15 -154 49 -192 49 -22 0 -24 3 -19 31 3
17 8 55 12 84 4 30 10 49 13 44 3 -5 116 -12 251 -16 135 -3 277 -9 315 -13
104 -11 275 -10 277 2 1 9 -110 75 -122 72 -5 -1 -20 2 -100 18 -14 3 -41 8
-60 10 -78 12 -96 15 -120 20 -14 3 -43 8 -65 11 -178 24 -210 31 -207 46 1 9
-5 19 -15 21 -36 10 -98 20 -121 20 -18 0 -22 4 -19 25 4 27 12 30 89 33 55 2
73 11 65 32 -10 26 -64 49 -129 56 -5 1 -8 27 -8 59 l0 57 63 1 c34 1 89 4
122 8 111 11 160 17 185 21 14 3 49 7 78 10 76 8 215 32 295 51 59 14 66 18
50 29 -10 7 -25 12 -33 12 -8 0 -37 3 -65 7 -27 4 -68 9 -90 11 -45 5 -132 16
-155 20 -8 2 -44 6 -80 10 -36 4 -68 9 -72 11 -11 7 -116 16 -208 17 l-85 2
-3 141 -2 140 92 13 c51 7 111 14 133 16 48 5 119 13 160 19 89 13 109 16 200
31 11 2 36 6 55 9 113 16 129 19 125 26 -3 4 -67 8 -142 8 -265 0 -274 3 -115
42 51 12 92 24 90 25 -2 2 -84 6 -183 9 -146 5 -182 9 -191 21 -7 9 -16 15
-20 14 -5 -1 -20 -1 -34 0 -19 1 -22 4 -10 10 15 9 141 43 170 46 44 5 80 18
80 29 0 8 8 13 18 13 38 -2 276 64 362 100 8 3 23 8 34 10 10 2 26 8 35 13 11
7 -31 9 -129 6 -325 -11 -358 -10 -342 6 7 7 12 15 12 18 0 12 -151 15 -386 7
-43 -1 -71 2 -71 8 0 6 -3 23 -7 38 -5 21 -3 29 11 33 10 3 32 11 48 18 l30
13 -48 4 c-36 3 -46 1 -42 -9 3 -7 0 -10 -5 -7 -20 13 -9 36 25 52 37 18 47
42 18 44 -10 1 -25 2 -33 3 -8 0 -18 -3 -22 -8 -6 -9 -10 5 -22 87 -3 15 -1
25 4 22 9 -6 66 15 163 59 31 14 82 37 112 51 30 14 90 34 132 45 141 37 221
72 146 65 -74 -7 -154 -16 -173 -20 -12 -2 -48 -7 -79 -10 -55 -5 -55 -5 59
39 97 38 121 51 90 48 -55 -5 -136 -14 -140 -17 -3 -2 -34 -6 -70 -10 -36 -4
-67 -9 -70 -10 -3 -2 -44 -7 -90 -10 -47 -4 -88 -9 -92 -12 -5 -2 -8 0 -8 6 0
5 24 17 53 27 68 22 376 152 405 170 33 21 27 34 -15 34 l-38 1 40 20 c73 38
89 50 75 59 -7 4 -26 6 -43 3 -29 -4 -30 -3 -16 13 15 19 18 19 -58 -4 -39
-13 -45 3 -8 20 14 6 25 15 25 20 0 4 6 8 14 8 7 0 19 7 26 15 11 13 8 14 -16
10 -136 -23 -185 -35 -413 -97 -78 -22 -145 -37 -148 -34 -3 3 -16 34 -28 70
-19 53 -20 66 -9 66 15 0 93 31 199 79 33 15 89 41 125 57 36 16 108 51 160
78 52 27 105 54 117 60 24 11 31 26 13 26 -13 0 -120 -29 -280 -75 -69 -20
-132 -38 -140 -40 -8 -3 -58 -17 -110 -33 -52 -16 -102 -31 -110 -33 -8 -2
-18 -8 -22 -14 -4 -5 -10 5 -14 23 -4 18 -11 35 -15 38 -5 3 -9 9 -9 15 0 10
263 139 707 345 93 43 76 59 -24 24 -32 -11 -61 -20 -66 -20 -5 0 -5 9 -2 20
3 11 3 20 -2 20 -4 -1 -64 -18 -133 -39z m-513 -263 c-3 -8 -6 -5 -6 6 -1 11
2 17 5 13 3 -3 4 -12 1 -19z m250 -740 c-3 -8 -6 -5 -6 6 -1 11 2 17 5 13 3
-3 4 -12 1 -19z"/>
<path d="M1285 8165 c66 -32 142 -63 180 -75 22 -7 60 -21 83 -32 24 -11 50
-17 57 -14 12 4 7 -25 -22 -117 -8 -25 -29 -22 -258 38 -223 59 -298 76 -315
72 -26 -5 57 -39 375 -151 55 -19 96 -35 92 -35 -4 -1 -72 15 -150 35 -78 20
-151 38 -161 40 -11 2 -40 10 -65 18 -93 30 -346 89 -436 102 -16 2 -35 6 -42
9 -7 2 -15 0 -18 -5 -4 -6 -1 -10 5 -10 6 0 30 -9 53 -19 86 -39 286 -116 327
-126 61 -14 159 -51 189 -70 33 -21 81 -62 81 -69 0 -1 -15 -1 -32 1 -31 4
-32 3 -15 -11 20 -15 240 -97 270 -99 21 -2 21 -2 3 -60 -7 -25 -11 -49 -7
-53 3 -3 -3 -4 -14 -1 -22 6 -62 14 -112 22 -98 15 -258 43 -293 50 -14 3 -41
8 -60 11 -19 2 -57 9 -85 14 -27 5 -63 12 -79 14 -16 3 -52 10 -80 16 -28 5
-67 12 -86 14 -19 3 -48 8 -65 11 -26 5 -53 10 -167 30 -46 8 -80 14 -136 24
-146 27 -287 37 -296 22 -13 -20 28 -57 83 -75 132 -42 309 -92 596 -166 88
-23 212 -55 275 -72 63 -16 126 -32 140 -34 14 -3 34 -8 45 -11 11 -4 25 -8
30 -9 6 -1 39 -10 75 -19 189 -48 170 -46 180 -19 5 13 15 54 22 90 l12 66 65
-7 c36 -4 129 -18 206 -31 77 -14 152 -27 167 -29 15 -2 35 -6 45 -9 10 -3 38
-8 63 -11 25 -3 52 -8 60 -10 8 -2 40 -7 70 -10 30 -3 63 -8 73 -11 9 -3 17
-2 17 3 0 5 -85 37 -190 72 -170 57 -230 87 -230 113 0 3 21 4 48 2 41 -4 45
-3 32 9 -8 8 -42 25 -75 38 -33 12 -64 27 -69 31 -6 4 -17 8 -25 8 -9 0 -43
14 -76 30 -43 21 -51 28 -30 25 17 -3 44 -7 60 -9 17 -3 84 -14 150 -25 167
-29 168 -30 158 -20 -5 5 -40 20 -78 34 -115 42 -268 96 -303 107 -58 16 -29
19 34 2 71 -18 134 -28 134 -20 0 3 -12 12 -27 20 -41 22 -22 19 127 -19 74
-20 142 -37 150 -39 8 -2 35 -10 60 -17 25 -7 48 -13 53 -15 4 -1 8 -2 10 -4
1 -1 9 -3 17 -5 8 -2 74 -20 145 -40 261 -74 386 -105 380 -95 -5 8 -63 32
-185 75 -139 50 -273 108 -322 141 -39 27 -161 79 -338 147 -38 14 136 -7 230
-28 3 -1 32 -9 65 -19 33 -10 68 -20 78 -22 10 -2 28 -6 40 -9 12 -4 30 -9 40
-11 9 -3 17 -1 17 4 0 11 -117 75 -195 108 -27 11 -75 32 -105 46 -79 37 -340
148 -346 148 -7 0 -29 -63 -26 -74 2 -5 -3 -4 -10 2 -8 6 -25 13 -38 15 -14 3
-87 21 -164 41 -145 38 -192 45 -141 21z m282 -287 c-3 -8 -6 -5 -6 6 -1 11 2
17 5 13 3 -3 4 -12 1 -19z m-20 -70 c-3 -8 -6 -5 -6 6 -1 11 2 17 5 13 3 -3 4
-12 1 -19z m-40 -140 c-3 -8 -6 -5 -6 6 -1 11 2 17 5 13 3 -3 4 -12 1 -19z"/>
<path d="M1436 7342 c-2 -4 -7 -27 -11 -51 -4 -24 -10 -39 -14 -34 -3 6 -13
10 -21 10 -8 1 -60 4 -114 7 -122 7 -118 -5 15 -38 61 -16 100 -21 111 -15 14
8 15 5 7 -24 -5 -17 -10 -54 -11 -81 l-3 -48 -235 6 c-129 3 -275 9 -325 13
-140 10 -295 9 -297 -2 -3 -11 89 -64 124 -71 97 -19 240 -45 273 -49 22 -3
54 -8 70 -11 17 -3 39 -6 50 -8 33 -5 139 -20 150 -21 6 0 9 -8 7 -17 -1 -9 5
-19 15 -22 27 -7 116 -20 129 -18 6 1 10 -11 10 -26 0 -26 -2 -28 -50 -30 -28
-1 -60 -4 -71 -6 -11 -3 -23 -5 -27 -5 -17 -2 -7 -31 15 -46 37 -24 115 -45
120 -31 2 6 3 -21 3 -61 -1 -49 -4 -68 -12 -62 -6 5 -35 7 -65 4 -88 -6 -182
-15 -219 -20 -53 -7 -110 -14 -160 -20 -25 -3 -56 -8 -70 -10 -14 -2 -54 -9
-90 -15 -104 -16 -123 -20 -157 -31 -62 -20 -40 -34 67 -44 36 -3 74 -7 85 -9
11 -2 49 -7 85 -11 36 -3 72 -8 80 -10 8 -2 42 -6 75 -10 33 -3 78 -10 100
-14 37 -8 72 -10 215 -14 l54 -2 4 -142 3 -143 -28 -1 c-15 0 -41 -2 -58 -4
-16 -2 -59 -7 -95 -10 -109 -11 -160 -18 -235 -30 -16 -3 -48 -8 -70 -11 -90
-12 -101 -13 -125 -18 -14 -3 -43 -7 -64 -11 -131 -19 -111 -32 52 -32 75 0
160 -1 187 -2 l50 -2 -36 -14 c-20 -7 -62 -19 -95 -26 -76 -16 -90 -29 -33
-30 303 -4 311 -5 323 -20 6 -8 19 -15 29 -16 42 -2 48 -4 43 -12 -3 -5 -18
-11 -33 -13 -87 -16 -218 -51 -224 -60 -7 -11 -13 -13 -74 -23 -36 -5 -128
-32 -254 -74 -51 -17 -100 -31 -107 -31 -7 0 -16 -4 -19 -10 -4 -6 36 -8 112
-5 135 4 316 7 353 6 24 -2 24 -2 6 -16 -11 -8 -18 -15 -15 -16 2 0 13 -3 24
-5 21 -5 305 -5 365 0 50 3 77 -11 84 -46 8 -42 8 -56 -2 -41 -5 8 -16 7 -42
-5 l-35 -16 48 -4 c34 -2 47 -7 47 -18 0 -8 -4 -13 -9 -10 -4 3 -22 -5 -40
-18 -37 -28 -27 -41 26 -38 34 3 32 7 48 -72 4 -21 0 -25 -28 -31 -17 -4 -38
-12 -44 -17 -7 -6 -13 -8 -13 -5 0 3 -35 -12 -78 -33 -109 -53 -168 -77 -237
-95 -92 -25 -185 -58 -185 -66 0 -7 30 -5 125 7 22 2 60 7 85 9 25 3 63 7 85
10 48 5 37 0 -88 -46 -48 -17 -90 -36 -93 -40 -3 -5 1 -7 8 -4 7 2 38 7 68 10
102 12 155 19 209 30 12 2 59 7 104 11 45 3 85 8 90 11 4 2 7 0 7 -6 0 -5 -17
-15 -37 -22 -56 -17 -210 -78 -278 -109 -33 -15 -84 -38 -113 -50 -58 -25 -63
-42 -12 -50 l33 -5 -39 -18 c-68 -32 -88 -48 -73 -57 7 -5 27 -6 44 -3 27 6
29 5 16 -10 -17 -21 -6 -21 48 -2 56 19 52 4 -9 -35 -28 -18 -49 -34 -47 -36
2 -2 30 1 63 7 32 6 64 12 69 13 6 1 39 9 75 18 36 10 94 24 130 33 71 17 70
17 150 40 103 31 96 32 115 -22 9 -26 21 -58 26 -70 7 -18 5 -23 -7 -23 -14 0
-84 -27 -184 -72 -301 -135 -459 -217 -433 -225 10 -4 147 33 463 126 74 21
147 44 161 49 15 6 30 8 33 5 3 -4 6 0 7 8 0 12 36 -55 38 -72 1 -7 -146 -81
-354 -179 -267 -127 -303 -143 -352 -166 -93 -43 -76 -59 24 -24 71 25 76 25
68 0 -6 -19 -3 -20 22 -14 29 7 199 64 457 153 82 28 160 52 173 53 13 2 23 9
24 18 0 10 3 9 8 -5 6 -14 3 -23 -9 -30 -9 -5 -41 -26 -71 -46 -30 -20 -90
-55 -134 -79 -201 -107 -349 -200 -449 -280 -124 -99 -174 -150 -149 -150 7 0
240 84 278 101 68 29 179 59 185 50 4 -7 23 -4 55 8 28 10 61 22 75 25 24 7
24 6 6 -8 -34 -27 -1 -18 96 28 152 71 186 86 196 86 4 0 16 6 26 13 16 12 13
21 -38 127 -30 63 -51 118 -48 121 4 3 70 39 147 79 77 40 201 107 275 148
203 113 228 135 141 126 -30 -3 -52 -1 -56 5 -3 6 -1 11 5 11 6 0 8 5 5 11 -7
10 -76 6 -110 -7 -8 -4 -15 -1 -15 5 0 6 4 11 9 11 13 0 92 53 87 58 -7 7
-118 -19 -186 -44 -35 -13 -65 -22 -67 -20 -1 1 38 22 88 46 49 24 93 48 96
53 4 6 0 8 -8 5 -8 -3 -45 -15 -84 -27 -38 -11 -153 -46 -255 -77 -102 -31
-190 -60 -195 -65 -7 -5 -16 0 -23 11 -9 16 -9 18 2 14 8 -3 30 9 50 26 29 26
571 290 595 290 4 0 16 7 27 15 18 15 17 15 -16 10 -19 -3 -52 -9 -74 -14 -28
-7 -36 -7 -27 2 19 19 12 29 -16 22 -16 -4 -32 -8 -38 -9 -5 -2 -35 -10 -65
-19 -129 -37 -491 -137 -498 -137 -10 0 -45 120 -37 128 3 3 22 14 43 24 l37
18 -40 -6 c-22 -3 -43 -11 -46 -16 -4 -6 -13 11 -21 38 -8 27 -10 51 -6 52 4
2 8 8 8 13 0 6 -4 8 -9 4 -5 -3 -12 -2 -15 3 -2 4 4 8 14 9 39 3 425 172 440
193 3 3 24 18 48 32 23 13 40 27 36 30 -6 7 -53 3 -150 -12 -115 -18 -164 -22
-164 -12 0 5 8 12 18 15 9 3 48 16 85 30 37 14 70 26 72 26 10 1 101 29 130
41 23 9 26 13 15 20 -12 8 -12 10 4 10 10 0 49 9 85 19 36 10 110 29 164 42
53 12 97 26 97 31 0 5 -4 7 -8 4 -8 -5 -27 -9 -104 -21 -18 -3 -58 -10 -88
-15 -30 -5 -74 -12 -97 -15 -23 -3 -57 -8 -75 -10 -152 -22 -422 -28 -477 -12
l-44 13 29 12 c16 6 52 17 79 23 64 15 79 29 35 30 -19 1 -43 0 -54 -1 -10 -1
-15 3 -12 8 3 6 59 22 123 36 165 38 184 42 233 51 14 3 36 7 50 10 14 3 38 8
54 10 16 2 31 7 35 11 3 3 -37 3 -89 -1 -52 -4 -108 -9 -125 -10 -27 -2 -102
-12 -165 -22 -14 -2 -74 -7 -135 -10 -99 -5 -108 -4 -96 10 20 24 6 35 -41 31
-41 -3 -43 -2 -44 25 -2 27 0 28 76 40 116 19 121 32 10 30 l-95 -2 -3 40 -3
40 63 13 c35 7 72 13 83 15 69 8 336 90 315 96 -3 0 -43 3 -90 4 -79 3 -137
11 -235 33 -22 4 -66 8 -97 8 -57 -1 -58 0 -58 27 0 15 6 27 13 28 6 0 32 2
57 3 46 3 148 15 184 22 11 2 52 6 91 10 38 3 73 8 76 10 4 2 33 6 65 9 85 8
95 10 103 23 4 7 21 12 37 12 47 -2 176 12 199 20 13 6 -12 9 -70 10 -49 1
-110 3 -135 5 -42 3 -265 15 -337 18 -49 3 -28 15 37 23 33 4 60 11 60 15 0 5
-6 9 -12 10 -7 0 15 7 49 14 35 8 68 17 75 22 7 4 19 8 26 9 7 1 20 8 28 15
14 11 13 14 -6 21 -23 8 -235 19 -425 22 l-120 1 0 70 c-1 68 0 70 25 71 45 1
155 16 160 21 3 2 5 10 5 16 0 11 32 22 92 30 47 7 73 17 73 27 0 8 -18 15
-147 61 -64 22 -81 39 -40 39 41 0 97 21 97 35 0 9 10 16 23 16 58 3 86 7 103
13 17 7 15 9 -12 21 -34 14 -143 40 -214 50 -25 4 -52 9 -60 10 -8 2 -30 4
-49 4 l-33 1 5 58 c4 31 6 59 7 62 0 3 84 6 187 6 104 1 242 2 308 2 119 1
191 -1 315 -12 167 -14 214 -16 200 -8 -8 5 -131 37 -272 72 -142 34 -258 67
-258 71 0 5 15 9 33 10 17 0 41 2 52 4 11 3 45 6 77 7 63 3 67 12 11 23 -48
10 -44 9 -138 33 -44 12 -91 23 -105 26 -77 15 -96 20 -105 27 -27 20 -242 82
-249 71z m-71 -1321 c3 -5 2 -12 -3 -15 -5 -3 -9 1 -9 9 0 17 3 19 12 6z m145
-881 c0 -5 -2 -10 -4 -10 -3 0 -8 5 -11 10 -3 6 -1 10 4 10 6 0 11 -4 11 -10z
m237 -722 c-3 -8 -6 -5 -6 6 -1 11 2 17 5 13 3 -3 4 -12 1 -19z"/>
<path d="M9988 4797 c8 -9 163 -91 345 -182 331 -166 405 -207 527 -291 36
-24 77 -50 91 -56 24 -11 26 -15 17 -40 -7 -19 -14 -26 -22 -20 -6 5 -38 19
-71 32 -58 22 -85 34 -189 79 -62 27 -70 20 -17 -15 52 -34 46 -43 -11 -16
-222 104 -672 301 -677 296 -8 -7 28 -30 281 -181 142 -85 248 -154 248 -163
1 -8 39 -37 85 -64 95 -55 169 -112 125 -97 -14 5 -29 9 -35 10 -20 2 -81 24
-115 42 -231 115 -533 259 -565 269 -22 6 -60 22 -85 35 -55 29 -109 50 -95
37 6 -5 109 -71 230 -147 121 -76 292 -185 380 -243 88 -57 199 -129 247 -160
48 -32 88 -60 88 -64 0 -8 -62 -108 -67 -108 -2 0 -1 5 2 10 3 6 0 10 -7 10
-7 0 -47 18 -90 41 -43 22 -78 38 -78 35 0 -3 28 -26 63 -52 34 -27 65 -52 68
-57 4 -6 14 -7 23 -4 20 8 20 0 1 -19 -8 -9 -15 -12 -15 -7 0 9 -90 46 -97 39
-8 -7 80 -65 90 -59 15 9 -25 -57 -43 -70 -13 -10 -13 -10 -2 5 16 20 33 7
-199 142 -161 93 -208 116 -162 77 37 -30 145 -125 163 -141 8 -8 40 -35 70
-60 30 -24 62 -52 71 -62 12 -14 19 -15 30 -5 7 7 5 2 -5 -10 -17 -21 -20 -21
-48 -7 -40 21 -47 11 -13 -19 27 -23 28 -24 10 -50 l-18 -27 -31 20 c-17 11
-83 50 -146 86 -112 65 -305 190 -603 392 -81 56 -145 97 -142 91 4 -5 59 -51
123 -102 64 -52 135 -109 157 -129 22 -19 79 -70 128 -112 48 -43 87 -80 87
-83 0 -3 -21 7 -46 22 -25 15 -47 25 -50 23 -2 -2 62 -71 142 -152 80 -81 143
-150 141 -152 -2 -3 -80 46 -173 108 -221 147 -254 169 -254 163 0 -8 169
-174 259 -255 46 -41 109 -97 139 -125 30 -27 59 -49 64 -48 13 4 9 -5 -10
-24 -10 -10 -40 -44 -66 -75 -27 -32 -53 -58 -58 -58 -5 0 -48 29 -95 64 -103
77 -154 106 -160 90 -2 -7 -13 -10 -23 -7 -39 10 -20 -23 74 -132 33 -38 73
-82 88 -98 l27 -27 -50 -49 c-45 -44 -61 -71 -41 -71 4 0 18 -10 32 -22 14
-13 84 -75 155 -138 72 -63 132 -117 135 -120 3 -3 68 -61 145 -130 77 -69
145 -129 151 -135 6 -5 44 -39 84 -75 40 -36 85 -76 100 -90 15 -14 60 -54
100 -90 40 -36 92 -82 114 -102 23 -21 44 -38 48 -38 10 0 -26 42 -136 160
-103 110 -207 232 -202 237 5 6 126 -77 157 -108 35 -35 164 -129 177 -129 31
0 -81 121 -553 601 -121 123 -250 256 -286 296 -63 69 -67 71 -85 55 -10 -9
-6 -3 10 15 l28 31 72 -57 c91 -75 216 -158 247 -166 27 -7 62 -32 176 -123
104 -84 104 -84 136 -105 16 -10 31 -16 34 -13 6 6 -63 87 -104 121 -13 11
-25 29 -27 40 -3 11 -8 28 -12 39 -6 16 -4 17 14 7 24 -13 52 -15 52 -3 0 11
-89 101 -180 182 -122 107 -250 236 -250 252 0 7 14 29 31 48 17 19 28 30 25
24 -6 -12 26 -36 137 -103 37 -22 67 -37 67 -32 0 13 -38 59 -103 125 -57 58
-58 59 -78 40 -12 -11 4 16 36 58 41 55 60 74 68 67 7 -5 48 -32 92 -59 44
-27 98 -62 120 -78 22 -16 51 -35 65 -42 l24 -13 -17 27 c-10 14 -15 26 -12
26 2 0 70 -39 151 -87 80 -49 158 -95 173 -104 15 -9 64 -40 109 -68 45 -28
82 -47 82 -41 0 5 -3 10 -7 10 -5 0 -21 12 -38 28 -26 24 -112 95 -155 129 -8
6 -33 27 -56 45 -22 18 -53 43 -70 55 -16 13 -47 37 -69 54 -22 17 -49 37 -59
45 -11 7 -17 16 -14 20 4 3 66 -24 138 -60 139 -70 174 -81 125 -40 -16 14
-57 51 -90 83 -64 60 -164 146 -205 175 -14 10 -18 16 -10 13 38 -13 203 -90
242 -112 78 -45 89 -31 23 30 -32 30 -54 55 -47 55 6 0 64 -27 128 -60 64 -33
125 -60 136 -60 19 0 19 1 -1 26 -27 34 -27 64 -1 64 33 0 23 16 -37 63 -56
42 -308 212 -405 273 -26 16 -47 32 -48 35 0 11 82 149 90 149 4 0 49 -18 101
-39 51 -22 96 -38 98 -35 6 5 9 2 -88 68 -61 40 -88 53 -96 46 -7 -6 1 17 19
50 17 33 36 60 42 60 6 0 29 -8 50 -17 22 -9 58 -22 81 -28 37 -10 41 -10 31
3 -15 18 -14 17 275 -117 121 -55 222 -101 226 -101 4 0 31 -11 59 -25 29 -14
57 -25 62 -25 6 0 23 -6 38 -14 37 -18 82 -28 82 -18 0 8 -117 81 -207 129
-23 13 -58 33 -76 46 -19 12 -43 28 -53 34 -16 11 -9 12 39 7 32 -3 57 -2 57
3 0 13 -71 62 -162 112 -43 23 -78 46 -78 51 0 9 -93 66 -175 107 -22 11 -64
33 -92 47 -29 15 -57 25 -62 22 -5 -3 -7 2 -5 11 4 14 -9 23 -63 44 -37 14
-205 79 -373 144 -280 108 -539 202 -583 210 -9 2 -23 7 -30 11 -8 6 -8 3 1
-9z"/>
<path d="M2320 4271 c-52 -21 -139 -60 -194 -85 -54 -25 -105 -46 -112 -46 -8
0 -14 -4 -14 -8 0 -4 -20 -13 -45 -20 -45 -12 -58 -34 -36 -57 14 -16 82 -147
73 -141 -11 6 -140 -73 -201 -123 -25 -20 -49 -39 -55 -43 -34 -24 54 -30 162
-13 36 7 41 -4 13 -29 -11 -10 -17 -25 -14 -36 3 -12 -3 -22 -19 -31 -12 -6
-25 -15 -28 -18 -3 -3 -99 -69 -215 -145 -206 -137 -253 -172 -244 -180 2 -2
22 4 44 14 146 66 170 73 160 40 -8 -24 4 -25 71 -5 61 19 68 19 60 0 -3 -8
-9 -22 -12 -30 -7 -17 139 56 311 155 55 31 111 63 125 70 25 12 25 12 5 -7
-11 -11 -60 -55 -110 -99 -49 -43 -95 -83 -101 -89 -6 -5 -33 -28 -60 -50 -26
-22 -59 -51 -73 -64 -15 -13 -42 -35 -61 -50 -19 -14 -37 -28 -40 -32 -3 -3
-27 -20 -55 -39 -111 -74 -355 -283 -344 -295 4 -3 38 6 76 20 44 15 81 23 99
20 25 -5 69 19 289 156 143 89 279 174 302 188 23 14 93 58 155 96 62 39 116
70 119 70 6 0 76 -86 93 -113 4 -7 -2 -25 -14 -43 -28 -38 -21 -45 21 -23 l33
17 38 -44 39 -44 -74 -70 c-41 -38 -134 -126 -207 -195 -208 -196 -326 -316
-374 -383 -57 -79 -130 -206 -122 -214 3 -3 24 7 47 23 23 16 49 34 57 39 19
12 63 50 106 89 17 16 51 45 76 65 25 20 51 41 57 48 7 6 47 28 88 49 42 21
128 80 193 131 208 164 206 164 77 13 -139 -161 -224 -265 -220 -268 5 -5 106
71 129 97 11 11 23 21 27 21 4 0 -3 -12 -17 -27 -50 -54 -116 -147 -106 -151
6 -2 34 15 64 37 29 23 56 41 61 41 11 0 9 -18 -3 -25 -15 -9 -90 -112 -90
-123 0 -5 12 -14 26 -21 27 -12 37 -8 84 39 26 26 131 114 250 209 152 121
181 145 208 171 26 25 17 30 113 -59 46 -42 47 -44 32 -67 -14 -22 -14 -24 0
-24 9 0 20 8 26 18 9 15 13 14 42 -13 18 -16 39 -35 46 -42 11 -10 7 -21 -23
-60 -20 -26 -50 -77 -66 -113 -35 -77 -67 -126 -206 -319 -141 -195 -142 -204
-10 -78 26 25 57 29 43 6 -13 -20 21 -7 78 31 33 22 62 38 65 35 3 -3 -6 -29
-20 -57 -14 -29 -29 -64 -33 -76 -6 -21 -5 -23 12 -13 11 5 39 33 64 62 24 29
60 71 79 94 19 22 46 54 58 70 14 17 6 -3 -18 -49 -26 -48 -40 -86 -36 -99 3
-11 -4 -37 -15 -59 -11 -21 -17 -43 -14 -48 3 -4 1 -20 -5 -34 -21 -55 15 -35
109 60 53 55 123 130 156 168 33 38 84 93 113 124 28 30 52 56 52 58 0 2 -29
24 -65 49 -36 26 -65 48 -65 50 0 2 25 40 56 85 31 45 54 83 52 86 -9 8 -127
-149 -120 -160 5 -9 -52 31 -91 64 -4 4 0 24 9 45 11 26 12 41 5 43 -7 2 -3
22 10 55 11 29 22 63 24 77 2 14 5 32 7 40 3 16 -4 16 -36 4 -30 -12 49 126
151 262 96 128 128 174 120 174 -2 0 -41 -37 -87 -82 -114 -115 -100 -93 129
197 121 154 114 145 108 145 -3 0 -34 -30 -68 -67 -228 -239 -517 -533 -524
-533 -5 0 55 90 66 100 7 7 123 183 128 195 2 6 12 22 23 37 11 16 17 32 14
36 -3 5 6 25 19 45 46 66 27 58 -82 -39 -36 -32 -78 -63 -94 -69 -15 -5 -52
-32 -81 -59 -29 -27 -97 -90 -152 -140 -54 -50 -103 -93 -108 -95 -5 -1 -45
33 -89 78 -46 47 -74 81 -65 81 9 0 16 3 16 8 0 4 21 30 46 57 56 61 164 181
230 254 27 30 66 73 87 95 20 23 37 44 37 48 0 24 -111 -42 -307 -183 l-225
-161 -24 23 c-13 12 -24 28 -24 34 0 6 23 30 50 52 151 123 363 328 365 353 2
24 49 70 319 310 74 65 139 131 135 135 -3 2 -36 -20 -74 -49 -247 -186 -563
-411 -570 -404 -2 2 24 32 58 67 43 46 54 63 39 59 -32 -9 -28 -1 26 49 127
118 174 165 170 168 -2 2 -82 -44 -178 -103 -96 -60 -247 -152 -335 -206 -88
-54 -177 -110 -198 -124 -37 -24 -38 -25 -52 -6 -40 53 -77 108 -65 97 11 -10
29 1 93 54 96 79 120 103 113 110 -2 3 -17 -4 -33 -15 -15 -11 -66 -38 -111
-61 -60 -30 -82 -46 -78 -57 8 -22 0 -17 -18 12 -17 24 -16 26 11 47 15 12 80
65 144 117 64 52 158 129 209 170 51 41 104 85 119 98 14 12 76 64 138 115 62
50 112 95 113 100 0 11 -66 -18 -140 -62 -76 -45 -172 -96 -488 -256 -157 -80
-231 -123 -228 -132 8 -21 0 -15 -18 12 -9 14 -13 24 -9 23 9 -3 49 24 96 65
31 28 31 29 7 24 -23 -5 -22 -3 10 24 19 17 80 60 135 96 141 93 367 254 363
258 -2 2 -58 -22 -123 -54 -212 -104 -265 -126 -265 -111 0 6 4 10 8 10 5 0
19 8 30 18 12 9 33 25 47 35 19 14 23 22 15 31 -12 15 21 53 76 87 42 26 44
43 4 37 -16 -3 -30 -1 -30 4 0 16 -36 7 -130 -31z m-280 -421 c6 -11 8 -20 6
-20 -3 0 -10 9 -16 20 -6 11 -8 20 -6 20 3 0 10 -9 16 -20z m28 -55 c-3 -3 -9
2 -12 12 -6 14 -5 15 5 6 7 -7 10 -15 7 -18z m80 -130 c-3 -3 -9 2 -12 12 -6
14 -5 15 5 6 7 -7 10 -15 7 -18z m27 -35 c10 -11 16 -20 13 -20 -3 0 -13 9
-23 20 -10 11 -16 20 -13 20 3 0 13 -9 23 -20z m494 -633 l25 -32 -32 29 c-33
31 -37 36 -24 35 4 0 18 -14 31 -32z m552 -524 c13 -16 12 -17 -3 -4 -17 13
-22 21 -14 21 2 0 10 -8 17 -17z"/>
<path d="M9050 3669 c0 -6 23 -38 51 -70 55 -63 55 -77 0 -29 -40 35 -46 37
-31 9 12 -21 138 -190 150 -199 3 -3 16 -18 29 -35 12 -16 37 -46 54 -65 18
-19 55 -62 82 -95 27 -33 75 -86 105 -118 98 -104 65 -81 -66 46 -190 183
-259 246 -263 241 -5 -4 31 -51 100 -131 73 -83 119 -140 119 -148 0 -4 -16
10 -35 31 -19 20 -35 34 -35 30 0 -7 43 -67 65 -92 28 -32 38 -44 324 -403
l34 -43 -41 -38 -40 -38 -89 88 c-48 49 -89 87 -91 86 -1 -2 14 -31 34 -65 20
-34 35 -64 32 -66 -2 -2 -16 7 -32 21 -15 14 -30 23 -33 20 -5 -4 48 -81 89
-130 4 -5 14 -4 23 4 8 7 15 10 15 8 0 -3 -19 -20 -42 -38 -24 -19 -35 -25
-25 -14 18 22 23 44 8 44 -11 0 -92 81 -221 220 -270 293 -370 397 -370 384 0
-11 118 -187 170 -254 15 -19 29 -40 31 -46 6 -15 262 -428 269 -434 4 -3 -16
-20 -43 -38 -27 -19 -46 -29 -42 -23 3 6 -52 84 -122 174 -71 89 -160 203
-198 252 -77 99 -85 110 -100 128 -27 33 -219 292 -269 364 -52 75 -59 81 -77
70 -10 -6 -19 -20 -19 -30 0 -26 102 -220 205 -387 261 -429 302 -500 286
-500 -6 0 -11 3 -11 8 0 10 -46 62 -55 62 -4 0 -5 -7 -1 -15 11 -31 -5 -13
-69 77 -61 86 -91 105 -43 28 11 -19 23 -48 25 -64 3 -29 53 -134 98 -206 12
-19 36 -61 54 -92 l32 -58 -25 -10 c-15 -5 -40 -19 -56 -30 -17 -11 -43 -29
-60 -40 -16 -11 -33 -20 -37 -20 -4 0 0 5 9 11 16 9 13 16 -25 68 -23 32 -63
82 -89 112 -25 30 -58 68 -72 84 -31 36 -35 15 -6 -32 11 -18 16 -33 12 -32
-4 0 -63 89 -131 197 -209 330 -263 412 -273 412 -4 0 -2 -12 5 -27 19 -38 29
-83 19 -83 -5 0 -17 9 -27 20 -10 11 -20 18 -22 16 -5 -5 54 -156 112 -286 25
-58 66 -157 90 -220 101 -268 143 -365 157 -362 9 2 10 0 3 -6 -5 -6 -18 -12
-29 -14 -14 -2 -29 17 -69 92 -27 52 -70 133 -95 180 -25 47 -44 86 -41 86 2
1 -3 10 -12 20 -9 11 -25 35 -34 54 -46 90 -128 211 -135 200 -4 -7 -1 -29 7
-49 l15 -36 -24 23 c-33 30 -38 28 -27 -10 12 -43 12 -45 -6 -22 -8 10 -15 14
-15 7 0 -9 77 -218 110 -298 17 -42 40 -106 40 -113 0 -12 -53 70 -110 173
-66 117 -102 175 -112 175 -9 0 14 -80 66 -225 26 -71 58 -161 72 -200 14 -38
32 -85 39 -102 8 -19 10 -33 5 -33 -6 0 -10 5 -10 12 0 6 -2 9 -5 6 -3 -3 -2
-23 3 -46 l9 -40 -63 -25 c-73 -29 -66 -33 -119 71 -21 39 -40 72 -43 72 -2 0
-1 -15 2 -32 4 -18 9 -51 12 -73 l4 -40 -25 53 c-28 57 -40 67 -31 25 6 -28 6
-28 -9 2 -8 17 -23 50 -33 75 -64 152 -160 356 -206 435 -29 50 -65 122 -81
158 -16 37 -32 67 -36 67 -4 0 4 -39 16 -87 13 -49 26 -99 29 -113 3 -14 16
-74 31 -135 31 -136 40 -212 27 -245 -10 -24 -11 -22 -36 35 -15 33 -31 69
-36 80 -9 21 -89 226 -122 313 -11 29 -22 52 -24 49 -2 -2 1 -28 6 -58 6 -30
13 -67 16 -84 2 -16 7 -39 11 -50 3 -11 7 -31 9 -45 1 -14 5 -34 7 -45 3 -11
8 -40 12 -65 4 -25 9 -54 11 -65 2 -11 6 -31 9 -45 2 -14 9 -50 15 -80 6 -30
13 -77 16 -105 6 -47 5 -49 -10 -30 -16 19 -16 17 -11 -35 3 -30 10 -79 15
-109 6 -30 10 -56 10 -58 0 -2 8 -3 18 -4 9 -1 -1 -7 -23 -14 -23 -7 -39 -18
-39 -26 5 -55 213 -638 265 -741 31 -62 54 -85 44 -46 -7 27 -9 36 -19 93 -4
22 -11 60 -16 85 -6 25 -12 59 -15 75 -3 17 -12 64 -20 105 -7 41 -16 89 -19
106 -3 17 -19 101 -36 185 -16 85 -30 162 -30 173 0 12 -5 16 -15 12 -8 -3
-15 -3 -15 0 0 5 33 18 72 28 31 7 30 10 133 -299 111 -331 162 -451 201 -465
14 -6 31 -28 45 -59 11 -28 28 -56 36 -63 16 -13 15 1 -7 92 -7 25 -13 52 -15
60 -2 8 -29 103 -60 210 -57 197 -61 212 -70 253 -2 12 -12 53 -21 90 -29 121
-8 93 79 -103 9 -19 21 -48 27 -64 24 -64 17 -13 -16 113 -19 74 -36 143 -39
155 -15 70 -37 132 -50 142 -13 10 -12 12 9 16 15 3 23 1 20 -4 -6 -9 4 -38
83 -228 49 -118 44 -107 128 -289 76 -167 141 -291 152 -291 3 0 3 18 0 40 -5
37 -3 40 14 35 25 -8 25 -7 -16 158 -34 134 -50 216 -41 206 2 -2 21 -37 41
-76 21 -40 42 -73 47 -73 11 0 9 6 -44 160 -22 63 -45 142 -52 175 -28 127
-72 265 -90 277 -7 5 -5 8 5 8 9 0 43 12 74 26 46 20 60 22 66 12 5 -7 9 -17
9 -21 0 -5 8 -21 19 -35 10 -15 55 -99 100 -187 50 -101 99 -182 131 -218 58
-68 62 -59 24 57 -13 44 -27 100 -30 125 -3 25 -9 61 -14 78 -11 43 4 51 26
13 10 -16 22 -30 27 -30 4 0 5 5 2 10 -3 6 -2 10 3 10 4 0 20 -21 34 -47 58
-111 120 -213 128 -213 4 0 0 23 -10 50 -20 56 -10 68 16 18 9 -18 64 -104
123 -192 58 -87 110 -167 116 -177 11 -20 25 -25 25 -9 0 6 -18 49 -40 96 -22
47 -40 87 -40 89 0 2 -18 42 -40 89 -39 84 -100 231 -100 242 0 19 80 -81 108
-136 18 -34 41 -64 46 -59 3 3 -89 213 -171 389 -37 81 -95 196 -113 225 l-19
30 31 18 c17 10 26 12 20 5 -21 -25 315 -516 454 -663 53 -56 162 -195 227
-292 16 -23 38 -50 49 -60 20 -18 21 -18 13 7 -4 14 -25 66 -47 115 -22 50
-60 140 -85 200 -43 101 -273 564 -295 592 -6 7 -8 18 -6 25 5 13 -34 94 -81
170 l-22 37 23 12 c37 19 202 131 208 140 6 9 49 -34 171 -171 81 -91 358
-414 424 -495 22 -27 49 -59 60 -71 11 -12 67 -79 124 -148 105 -126 143 -160
100 -88 -33 53 -388 581 -512 760 -58 84 -102 152 -96 152 5 0 9 -3 9 -7 0 -5
19 -28 43 -53 23 -25 64 -74 92 -110 71 -93 137 -156 163 -156 33 0 27 23 -27
107 -27 42 -54 93 -61 114 -7 21 -49 92 -94 158 -44 65 -87 129 -95 141 -8 11
8 0 35 -25 27 -25 65 -57 84 -70 75 -51 204 -179 355 -353 64 -73 137 -146
162 -159 32 -19 29 3 -13 107 -6 16 -4 18 9 13 27 -10 20 9 -26 81 -72 110
-445 580 -469 590 -11 5 -10 32 1 32 5 0 60 49 123 110 l113 109 -35 32 c-19
17 -55 47 -79 68 -24 20 -53 45 -65 56 -12 11 -65 58 -116 105 -52 47 -123
112 -159 145 -36 33 -77 71 -92 85 -15 14 -85 80 -155 146 -71 67 -149 140
-173 163 -44 42 -61 50 -61 30z m590 -1153 c0 -2 -8 -10 -17 -17 -16 -13 -17
-12 -4 4 13 16 21 21 21 13z m-130 -99 c0 -2 -10 -12 -22 -23 l-23 -19 19 23
c18 21 26 27 26 19z m-700 -462 c0 -2 -10 -9 -22 -15 -22 -11 -22 -10 -4 4 21
17 26 19 26 11z m-845 -365 c-3 -5 -14 -10 -23 -9 -14 0 -13 2 3 9 27 11 27
11 20 0z"/>
<path d="M4249 2951 c-14 -20 -97 -142 -184 -271 -272 -404 -315 -463 -315
-432 0 5 40 89 89 185 49 97 91 191 95 210 4 19 13 48 20 63 22 46 30 78 17
70 -6 -4 -43 -44 -82 -89 -39 -45 -101 -114 -138 -152 -66 -70 -222 -266 -224
-282 -1 -4 30 -31 69 -58 54 -39 68 -54 58 -62 -16 -16 -48 -102 -41 -110 10
-10 76 29 101 58 l23 27 49 -30 c27 -17 51 -32 53 -34 2 -2 -8 -28 -23 -59
-14 -31 -26 -64 -26 -74 0 -22 -32 -97 -69 -160 -34 -59 -111 -237 -111 -258
0 -25 38 15 106 110 77 109 78 110 70 60 -5 -38 -4 -43 13 -43 10 0 21 -7 25
-15 5 -14 -39 -143 -63 -186 -14 -25 -71 -170 -71 -181 0 -6 -34 -95 -74 -197
-76 -191 -105 -268 -111 -303 -9 -47 26 5 368 535 100 154 146 215 112 149
-23 -46 -9 -54 23 -14 17 21 33 31 43 27 14 -5 74 86 153 235 16 30 36 66 46
80 9 14 20 33 23 43 6 16 9 16 44 1 21 -8 48 -20 61 -25 12 -5 22 -11 22 -14
0 -4 -4 -4 -8 -1 -13 8 -97 -258 -136 -427 -18 -81 -31 -147 -27 -147 14 0
161 290 226 446 l38 92 39 -14 c56 -19 58 -22 48 -48 -5 -13 -11 -44 -15 -67
-7 -53 -5 -45 -45 -194 -17 -66 -35 -136 -40 -154 -5 -19 -7 -37 -4 -40 7 -8
40 37 55 74 7 17 30 56 52 88 32 48 41 56 53 46 8 -6 16 -10 17 -8 13 19 61
124 75 164 13 37 23 50 37 50 12 0 19 -6 18 -15 -2 -18 -78 -298 -88 -323 -4
-9 -3 -17 3 -17 6 0 14 15 18 33 4 17 9 27 11 21 2 -7 -12 -67 -32 -135 -67
-227 -158 -583 -169 -661 -3 -21 -10 -57 -16 -80 -13 -56 -13 -158 0 -158 27
0 129 183 213 380 59 141 305 797 320 854 2 10 -54 32 -171 67 l-74 21 5 42
c6 50 53 238 106 424 54 186 94 353 87 359 -3 3 -28 -42 -56 -101 -27 -58 -52
-106 -55 -106 -2 0 -2 18 1 40 4 30 1 44 -13 59 -10 11 -23 17 -29 13 -6 -4
-27 -37 -48 -74 -20 -38 -39 -68 -40 -68 -2 0 12 44 31 98 19 53 36 102 37
107 2 6 6 17 9 25 15 39 37 113 34 116 -2 2 -30 -48 -62 -111 -33 -63 -63
-115 -67 -115 -4 0 2 28 13 63 11 34 29 89 40 123 10 33 19 65 19 70 -1 10
-103 -193 -164 -326 -22 -47 -57 -123 -78 -170 -22 -47 -49 -105 -59 -128 -38
-83 -30 -34 14 89 42 114 100 287 102 299 0 3 3 10 6 15 4 6 10 27 13 49 6 29
4 37 -6 34 -28 -9 -369 -554 -371 -593 -2 -19 -16 -14 -140 49 -76 39 -134 72
-128 74 12 4 174 323 236 467 22 50 45 100 51 113 14 27 7 72 -11 72 -22 0
-68 -44 -110 -106 -46 -68 -133 -190 -155 -218 -42 -53 -73 -86 -77 -83 -2 3
19 47 48 98 99 180 241 460 236 465 -3 3 -29 -26 -58 -65 -30 -39 -58 -70 -63
-71 -5 0 -4 6 2 13 20 25 185 337 180 342 -1 1 -15 -14 -29 -34z m-344 -946
l20 -16 -20 10 c-11 5 -29 17 -40 26 l-20 16 20 -10 c11 -5 29 -17 40 -26z
m61 -31 c18 -14 18 -14 -6 -3 -31 14 -36 19 -24 19 6 0 19 -7 30 -16z"/>
<path d="M6195 2590 c-3 -5 -1 -10 4 -10 6 0 11 5 11 10 0 6 -2 10 -4 10 -3 0
-8 -4 -11 -10z"/>
<path d="M6188 2528 c0 -24 -2 -47 -3 -53 -5 -30 -19 -142 -30 -250 -4 -38 -9
-77 -11 -85 -1 -8 -3 -28 -4 -45 -1 -16 -4 -24 -7 -17 -2 6 -8 12 -12 12 -7 0
-12 -23 -25 -130 -2 -14 -6 -43 -9 -65 -4 -22 -9 -65 -12 -95 -4 -30 -8 -68
-10 -85 -2 -16 -6 -61 -10 -98 -8 -74 -17 -83 -17 -15 2 205 1 248 -4 283 -3
22 -7 69 -9 105 -2 36 -4 72 -5 80 -2 27 -17 -22 -24 -79 -4 -30 -15 -116 -25
-190 -11 -75 -22 -161 -26 -191 -4 -30 -13 -64 -20 -76 -19 -30 -48 -132 -42
-148 6 -14 -36 -15 -108 -2 -57 9 -150 20 -158 18 -5 -2 -5 3 -1 10 5 7 9 31
11 53 1 22 5 65 7 95 5 49 4 52 -7 32 -16 -28 -26 -20 -22 16 2 15 6 56 10 92
3 36 7 79 9 95 3 17 8 59 11 95 4 36 9 72 10 80 2 8 6 44 10 80 4 36 9 73 10
82 5 24 17 142 19 188 3 52 -10 74 -20 34 -4 -16 -52 -184 -106 -374 -54 -190
-101 -356 -104 -368 -2 -13 -11 -38 -20 -55 -8 -18 -12 -23 -9 -13 3 11 8 33
10 50 2 17 7 49 11 71 7 47 7 45 1 116 -2 30 1 91 8 135 7 43 16 99 19 124 3
25 22 134 42 243 19 109 34 203 32 209 -2 5 -16 -32 -32 -83 -15 -52 -38 -123
-52 -159 l-24 -65 3 48 c8 104 -18 40 -116 -296 -48 -164 -71 -211 -72 -147
-1 28 17 155 30 220 6 29 15 102 19 143 4 45 -9 31 -49 -50 -60 -127 -200
-483 -218 -558 -1 -5 31 -19 71 -30 l73 -20 -5 -50 -6 -50 16 34 c8 18 13 40
10 47 -3 9 2 14 14 14 14 0 18 -6 15 -22 -2 -13 -8 -49 -13 -81 -9 -57 -9 -58
9 -40 27 27 61 121 46 126 -11 4 10 0 43 -7 8 -2 34 -7 58 -11 23 -4 40 -10
38 -13 -2 -4 -9 -52 -16 -107 -13 -119 -19 -168 -25 -215 -15 -113 -18 -139
-19 -180 -1 -48 25 -133 40 -129 47 11 46 10 74 134 7 28 13 61 15 75 5 38 47
204 52 210 5 5 -2 -109 -11 -185 -4 -27 -13 -120 -21 -200 -13 -131 -16 -199
-8 -190 5 6 24 80 42 165 40 187 38 177 46 234 8 49 25 66 19 18 -2 -15 -7
-103 -10 -195 -7 -163 -6 -169 15 -188 22 -21 23 -23 26 -165 1 -50 5 -102 8
-115 4 -14 9 -68 12 -120 6 -104 13 -145 22 -135 4 4 8 19 9 34 1 15 14 81 28
147 14 66 27 134 30 150 3 17 12 62 21 100 9 39 18 81 21 95 3 14 20 93 39
175 18 83 36 173 40 200 6 55 33 215 41 255 4 14 6 33 7 43 1 16 8 18 62 13
33 -2 66 -5 72 -5 7 -1 12 -4 12 -8 -1 -5 -1 -26 0 -48 1 -45 15 -38 28 15 9
34 11 35 54 34 106 -3 97 3 98 -66 3 -143 20 -494 25 -538 2 -14 4 -42 5 -62
0 -21 5 -38 10 -38 4 0 8 8 8 18 -1 9 2 41 6 71 10 67 25 56 28 -19 1 -31 5
-65 9 -75 15 -42 27 84 35 346 2 97 9 187 14 200 9 22 10 20 12 -16 1 -22 3
-49 4 -60 1 -11 5 -49 9 -85 9 -94 16 -171 21 -205 2 -16 4 -48 5 -70 1 -33 3
-36 10 -19 10 25 19 150 19 278 1 49 4 86 8 82 8 -8 8 -6 18 -176 3 -63 8
-133 10 -155 2 -22 7 -87 10 -145 11 -165 16 -178 40 -96 9 31 22 56 29 56 7
0 19 21 27 47 10 35 19 47 31 45 28 -4 25 -20 43 277 9 151 16 206 25 215 6 6
10 6 11 1 0 -6 2 -17 4 -25 2 -8 5 -26 8 -40 19 -94 32 -100 36 -18 2 29 5 73
6 98 2 25 3 62 4 83 1 20 5 37 9 37 5 0 9 -6 9 -12 0 -7 7 -47 16 -88 19 -84
26 -114 33 -149 11 -51 23 -53 47 -8 23 42 25 58 32 190 3 74 1 114 -6 123 -9
11 -7 14 7 15 27 2 55 5 111 13 46 6 49 5 49 -16 1 -26 53 -260 60 -267 5 -5
7 29 4 84 -1 22 0 38 3 35 5 -5 34 -107 58 -205 20 -80 31 -64 26 35 -12 209
-18 296 -21 316 -2 11 -1 26 3 33 6 9 22 -40 36 -109 0 -3 9 -39 19 -80 29
-124 45 -193 52 -233 9 -50 27 -60 20 -10 -3 21 -8 70 -11 108 -3 39 -8 95
-10 125 l-5 55 21 -65 c28 -89 51 -151 54 -148 2 2 5 25 8 52 4 27 9 51 11 54
3 3 17 -21 31 -54 14 -32 39 -84 54 -114 16 -30 39 -83 51 -118 13 -34 26 -65
31 -67 4 -3 6 21 4 52 -3 32 -7 118 -10 192 -3 74 -7 146 -10 160 -19 95 -22
168 -9 230 4 22 2 36 -6 41 -7 4 5 10 31 14 24 4 50 10 56 14 10 6 -5 70 -61
263 -83 285 -135 449 -141 449 -5 0 3 -69 15 -122 10 -49 -3 -41 -20 11 -20
61 -27 50 -18 -26 7 -70 12 -95 48 -293 12 -63 23 -128 26 -145 2 -16 7 -41
10 -53 3 -13 7 -43 11 -65 3 -23 10 -44 17 -46 9 -4 -198 -49 -231 -50 -6 -1
-20 16 -30 37 -10 20 -24 36 -30 35 -6 -1 -23 36 -37 85 -15 48 -30 101 -36
117 -5 17 -16 59 -25 95 -20 79 -23 84 -41 69 -15 -12 -25 5 -38 67 -4 18 -15
34 -24 36 -12 3 -26 31 -41 81 -14 42 -28 74 -32 71 -4 -2 -11 -25 -15 -49 -3
-25 -10 -48 -15 -51 -5 -3 -9 -15 -9 -27 -1 -22 -1 -22 -14 2 l-13 23 -8 -33
-7 -34 -8 27 c-8 26 -18 95 -20 128 0 12 -2 12 -9 2 -4 -8 -7 -26 -5 -40 2
-15 6 -88 9 -162 3 -74 8 -164 10 -200 3 -35 7 -123 11 -195 3 -82 10 -133 17
-138 7 -4 0 -7 -17 -5 -20 2 -30 9 -32 23 -7 42 -17 111 -19 135 -1 22 -7 59
-21 135 -11 61 -27 115 -35 115 -4 0 -8 -24 -7 -52 2 -80 -1 -112 -9 -104 -4
3 -8 14 -9 24 -2 9 -6 37 -10 62 -4 25 -7 49 -5 53 1 5 -3 6 -8 3 -6 -4 -8
-87 -6 -206 l3 -200 -51 -1 c-29 0 -75 -2 -104 -4 -41 -2 -51 0 -46 11 3 8 0
14 -6 14 -6 0 -11 -7 -11 -15 0 -8 -4 -15 -10 -15 -5 0 -11 24 -11 53 -1 28
-3 63 -4 77 -1 14 -5 81 -9 150 -4 69 -9 151 -11 184 -4 58 -14 83 -22 59 -15
-42 -31 27 -35 144 -2 66 -14 41 -22 -44 -15 -164 -24 -224 -37 -240 -10 -12
-13 -25 -23 -103 -10 -79 -18 -110 -27 -110 -5 0 -10 5 -10 10 -1 6 -2 13 -3
18 -10 36 -16 130 -20 317 -3 121 -8 236 -12 255 -4 19 -7 131 -7 248 0 116
-4 212 -8 212 -5 0 -10 -19 -11 -42z m-728 -1093 c0 -2 -9 -3 -19 -2 -11 0
-18 5 -15 9 4 6 34 0 34 -7z m63 -12 c-7 -2 -19 -2 -25 0 -7 3 -2 5 12 5 14 0
19 -2 13 -5z m64 -9 c-3 -3 -12 -4 -19 -1 -8 3 -5 6 6 6 11 1 17 -2 13 -5z
m1660 0 c-3 -3 -12 -4 -19 -1 -8 3 -5 6 6 6 11 1 17 -2 13 -5z m-1647 -294 c0
-5 -5 -10 -11 -10 -5 0 -7 5 -4 10 3 6 8 10 11 10 2 0 4 -4 4 -10z"/>
</g>
</svg>
